<?xml version="1.0" encoding="UTF-8"?>
<svg xmlns="http://www.w3.org/2000/svg" viewBox="0 0 1920 1080" width="1920" height="1080">
  <defs>
    <radialGradient id="bg" cx="50%" cy="46%" r="75%">
      <stop offset="0%" stop-color="#141B24"/>
      <stop offset="55%" stop-color="#0A0F15"/>
      <stop offset="100%" stop-color="#05080C"/>
    </radialGradient>
    <linearGradient id="sFill" x1="0%" y1="0%" x2="0%" y2="100%">
      <stop offset="0%" stop-color="#1A2330"/>
      <stop offset="100%" stop-color="#0B1018"/>
    </linearGradient>
    <radialGradient id="spotlight" cx="50%" cy="44%" r="35%">
      <stop offset="0%" stop-color="#00E0A4" stop-opacity="0.10"/>
      <stop offset="100%" stop-color="#00E0A4" stop-opacity="0"/>
    </radialGradient>
  </defs>

  <rect width="1920" height="1080" fill="url(#bg)"/>

  <!-- hex grid -->
  <g fill="none" stroke="#19222C" stroke-width="0.8" opacity="0.55">
    <polygon points="-29.4,-51.0 -29.4,-17.0 -58.9,0.0 -88.3,-17.0 -88.3,-51.0 -58.9,-68.0" />
<polygon points="29.4,-51.0 29.4,-17.0 0.0,0.0 -29.4,-17.0 -29.4,-51.0 -0.0,-68.0" />
<polygon points="88.3,-51.0 88.3,-17.0 58.9,0.0 29.4,-17.0 29.4,-51.0 58.9,-68.0" />
<polygon points="147.2,-51.0 147.2,-17.0 117.8,0.0 88.3,-17.0 88.3,-51.0 117.8,-68.0" />
<polygon points="206.1,-51.0 206.1,-17.0 176.7,0.0 147.2,-17.0 147.2,-51.0 176.7,-68.0" />
<polygon points="265.0,-51.0 265.0,-17.0 235.6,0.0 206.1,-17.0 206.1,-51.0 235.6,-68.0" />
<polygon points="323.9,-51.0 323.9,-17.0 294.4,0.0 265.0,-17.0 265.0,-51.0 294.4,-68.0" />
<polygon points="382.8,-51.0 382.8,-17.0 353.3,0.0 323.9,-17.0 323.9,-51.0 353.3,-68.0" />
<polygon points="441.7,-51.0 441.7,-17.0 412.2,0.0 382.8,-17.0 382.8,-51.0 412.2,-68.0" />
<polygon points="500.6,-51.0 500.6,-17.0 471.1,0.0 441.7,-17.0 441.7,-51.0 471.1,-68.0" />
<polygon points="559.5,-51.0 559.5,-17.0 530.0,0.0 500.6,-17.0 500.6,-51.0 530.0,-68.0" />
<polygon points="618.3,-51.0 618.3,-17.0 588.9,0.0 559.5,-17.0 559.5,-51.0 588.9,-68.0" />
<polygon points="677.2,-51.0 677.2,-17.0 647.8,0.0 618.3,-17.0 618.3,-51.0 647.8,-68.0" />
<polygon points="736.1,-51.0 736.1,-17.0 706.7,0.0 677.2,-17.0 677.2,-51.0 706.7,-68.0" />
<polygon points="795.0,-51.0 795.0,-17.0 765.6,0.0 736.1,-17.0 736.1,-51.0 765.6,-68.0" />
<polygon points="853.9,-51.0 853.9,-17.0 824.5,0.0 795.0,-17.0 795.0,-51.0 824.5,-68.0" />
<polygon points="912.8,-51.0 912.8,-17.0 883.3,0.0 853.9,-17.0 853.9,-51.0 883.3,-68.0" />
<polygon points="971.7,-51.0 971.7,-17.0 942.2,0.0 912.8,-17.0 912.8,-51.0 942.2,-68.0" />
<polygon points="1030.6,-51.0 1030.6,-17.0 1001.1,0.0 971.7,-17.0 971.7,-51.0 1001.1,-68.0" />
<polygon points="1089.5,-51.0 1089.5,-17.0 1060.0,0.0 1030.6,-17.0 1030.6,-51.0 1060.0,-68.0" />
<polygon points="1148.3,-51.0 1148.3,-17.0 1118.9,0.0 1089.5,-17.0 1089.5,-51.0 1118.9,-68.0" />
<polygon points="1207.2,-51.0 1207.2,-17.0 1177.8,0.0 1148.3,-17.0 1148.3,-51.0 1177.8,-68.0" />
<polygon points="1266.1,-51.0 1266.1,-17.0 1236.7,0.0 1207.2,-17.0 1207.2,-51.0 1236.7,-68.0" />
<polygon points="1325.0,-51.0 1325.0,-17.0 1295.6,0.0 1266.1,-17.0 1266.1,-51.0 1295.6,-68.0" />
<polygon points="1383.9,-51.0 1383.9,-17.0 1354.5,0.0 1325.0,-17.0 1325.0,-51.0 1354.5,-68.0" />
<polygon points="1442.8,-51.0 1442.8,-17.0 1413.4,0.0 1383.9,-17.0 1383.9,-51.0 1413.4,-68.0" />
<polygon points="1501.7,-51.0 1501.7,-17.0 1472.2,0.0 1442.8,-17.0 1442.8,-51.0 1472.2,-68.0" />
<polygon points="1560.6,-51.0 1560.6,-17.0 1531.1,0.0 1501.7,-17.0 1501.7,-51.0 1531.1,-68.0" />
<polygon points="1619.5,-51.0 1619.5,-17.0 1590.0,0.0 1560.6,-17.0 1560.6,-51.0 1590.0,-68.0" />
<polygon points="1678.4,-51.0 1678.4,-17.0 1648.9,0.0 1619.5,-17.0 1619.5,-51.0 1648.9,-68.0" />
<polygon points="1737.2,-51.0 1737.2,-17.0 1707.8,0.0 1678.4,-17.0 1678.4,-51.0 1707.8,-68.0" />
<polygon points="1796.1,-51.0 1796.1,-17.0 1766.7,0.0 1737.2,-17.0 1737.2,-51.0 1766.7,-68.0" />
<polygon points="1855.0,-51.0 1855.0,-17.0 1825.6,0.0 1796.1,-17.0 1796.1,-51.0 1825.6,-68.0" />
<polygon points="1913.9,-51.0 1913.9,-17.0 1884.5,0.0 1855.0,-17.0 1855.0,-51.0 1884.5,-68.0" />
<polygon points="1972.8,-51.0 1972.8,-17.0 1943.4,0.0 1913.9,-17.0 1913.9,-51.0 1943.4,-68.0" />
<polygon points="0.0,0.0 0.0,34.0 -29.4,51.0 -58.9,34.0 -58.9,-0.0 -29.4,-17.0" />
<polygon points="58.9,0.0 58.9,34.0 29.4,51.0 -0.0,34.0 0.0,-0.0 29.4,-17.0" />
<polygon points="117.8,0.0 117.8,34.0 88.3,51.0 58.9,34.0 58.9,-0.0 88.3,-17.0" />
<polygon points="176.7,0.0 176.7,34.0 147.2,51.0 117.8,34.0 117.8,-0.0 147.2,-17.0" />
<polygon points="235.6,0.0 235.6,34.0 206.1,51.0 176.7,34.0 176.7,-0.0 206.1,-17.0" />
<polygon points="294.4,0.0 294.4,34.0 265.0,51.0 235.6,34.0 235.6,-0.0 265.0,-17.0" />
<polygon points="353.3,0.0 353.3,34.0 323.9,51.0 294.4,34.0 294.4,-0.0 323.9,-17.0" />
<polygon points="412.2,0.0 412.2,34.0 382.8,51.0 353.3,34.0 353.3,-0.0 382.8,-17.0" />
<polygon points="471.1,0.0 471.1,34.0 441.7,51.0 412.2,34.0 412.2,-0.0 441.7,-17.0" />
<polygon points="530.0,0.0 530.0,34.0 500.6,51.0 471.1,34.0 471.1,-0.0 500.6,-17.0" />
<polygon points="588.9,0.0 588.9,34.0 559.5,51.0 530.0,34.0 530.0,-0.0 559.5,-17.0" />
<polygon points="647.8,0.0 647.8,34.0 618.3,51.0 588.9,34.0 588.9,-0.0 618.3,-17.0" />
<polygon points="706.7,0.0 706.7,34.0 677.2,51.0 647.8,34.0 647.8,-0.0 677.2,-17.0" />
<polygon points="765.6,0.0 765.6,34.0 736.1,51.0 706.7,34.0 706.7,-0.0 736.1,-17.0" />
<polygon points="824.5,0.0 824.5,34.0 795.0,51.0 765.6,34.0 765.6,-0.0 795.0,-17.0" />
<polygon points="883.3,0.0 883.3,34.0 853.9,51.0 824.5,34.0 824.5,-0.0 853.9,-17.0" />
<polygon points="942.2,0.0 942.2,34.0 912.8,51.0 883.3,34.0 883.3,-0.0 912.8,-17.0" />
<polygon points="1001.1,0.0 1001.1,34.0 971.7,51.0 942.2,34.0 942.2,-0.0 971.7,-17.0" />
<polygon points="1060.0,0.0 1060.0,34.0 1030.6,51.0 1001.1,34.0 1001.1,-0.0 1030.6,-17.0" />
<polygon points="1118.9,0.0 1118.9,34.0 1089.5,51.0 1060.0,34.0 1060.0,-0.0 1089.5,-17.0" />
<polygon points="1177.8,0.0 1177.8,34.0 1148.3,51.0 1118.9,34.0 1118.9,-0.0 1148.3,-17.0" />
<polygon points="1236.7,0.0 1236.7,34.0 1207.2,51.0 1177.8,34.0 1177.8,-0.0 1207.2,-17.0" />
<polygon points="1295.6,0.0 1295.6,34.0 1266.1,51.0 1236.7,34.0 1236.7,-0.0 1266.1,-17.0" />
<polygon points="1354.5,0.0 1354.5,34.0 1325.0,51.0 1295.6,34.0 1295.6,-0.0 1325.0,-17.0" />
<polygon points="1413.4,0.0 1413.4,34.0 1383.9,51.0 1354.5,34.0 1354.5,-0.0 1383.9,-17.0" />
<polygon points="1472.2,0.0 1472.2,34.0 1442.8,51.0 1413.4,34.0 1413.4,-0.0 1442.8,-17.0" />
<polygon points="1531.1,0.0 1531.1,34.0 1501.7,51.0 1472.2,34.0 1472.2,-0.0 1501.7,-17.0" />
<polygon points="1590.0,0.0 1590.0,34.0 1560.6,51.0 1531.1,34.0 1531.1,-0.0 1560.6,-17.0" />
<polygon points="1648.9,0.0 1648.9,34.0 1619.5,51.0 1590.0,34.0 1590.0,-0.0 1619.5,-17.0" />
<polygon points="1707.8,0.0 1707.8,34.0 1678.4,51.0 1648.9,34.0 1648.9,-0.0 1678.4,-17.0" />
<polygon points="1766.7,0.0 1766.7,34.0 1737.2,51.0 1707.8,34.0 1707.8,-0.0 1737.2,-17.0" />
<polygon points="1825.6,0.0 1825.6,34.0 1796.1,51.0 1766.7,34.0 1766.7,-0.0 1796.1,-17.0" />
<polygon points="1884.5,0.0 1884.5,34.0 1855.0,51.0 1825.6,34.0 1825.6,-0.0 1855.0,-17.0" />
<polygon points="1943.4,0.0 1943.4,34.0 1913.9,51.0 1884.5,34.0 1884.5,-0.0 1913.9,-17.0" />
<polygon points="2002.3,0.0 2002.3,34.0 1972.8,51.0 1943.4,34.0 1943.4,-0.0 1972.8,-17.0" />
<polygon points="-29.4,51.0 -29.4,85.0 -58.9,102.0 -88.3,85.0 -88.3,51.0 -58.9,34.0" />
<polygon points="29.4,51.0 29.4,85.0 0.0,102.0 -29.4,85.0 -29.4,51.0 -0.0,34.0" />
<polygon points="88.3,51.0 88.3,85.0 58.9,102.0 29.4,85.0 29.4,51.0 58.9,34.0" />
<polygon points="147.2,51.0 147.2,85.0 117.8,102.0 88.3,85.0 88.3,51.0 117.8,34.0" />
<polygon points="206.1,51.0 206.1,85.0 176.7,102.0 147.2,85.0 147.2,51.0 176.7,34.0" />
<polygon points="265.0,51.0 265.0,85.0 235.6,102.0 206.1,85.0 206.1,51.0 235.6,34.0" />
<polygon points="323.9,51.0 323.9,85.0 294.4,102.0 265.0,85.0 265.0,51.0 294.4,34.0" />
<polygon points="382.8,51.0 382.8,85.0 353.3,102.0 323.9,85.0 323.9,51.0 353.3,34.0" />
<polygon points="441.7,51.0 441.7,85.0 412.2,102.0 382.8,85.0 382.8,51.0 412.2,34.0" />
<polygon points="500.6,51.0 500.6,85.0 471.1,102.0 441.7,85.0 441.7,51.0 471.1,34.0" />
<polygon points="559.5,51.0 559.5,85.0 530.0,102.0 500.6,85.0 500.6,51.0 530.0,34.0" />
<polygon points="618.3,51.0 618.3,85.0 588.9,102.0 559.5,85.0 559.5,51.0 588.9,34.0" />
<polygon points="677.2,51.0 677.2,85.0 647.8,102.0 618.3,85.0 618.3,51.0 647.8,34.0" />
<polygon points="736.1,51.0 736.1,85.0 706.7,102.0 677.2,85.0 677.2,51.0 706.7,34.0" />
<polygon points="795.0,51.0 795.0,85.0 765.6,102.0 736.1,85.0 736.1,51.0 765.6,34.0" />
<polygon points="853.9,51.0 853.9,85.0 824.5,102.0 795.0,85.0 795.0,51.0 824.5,34.0" />
<polygon points="912.8,51.0 912.8,85.0 883.3,102.0 853.9,85.0 853.9,51.0 883.3,34.0" />
<polygon points="971.7,51.0 971.7,85.0 942.2,102.0 912.8,85.0 912.8,51.0 942.2,34.0" />
<polygon points="1030.6,51.0 1030.6,85.0 1001.1,102.0 971.7,85.0 971.7,51.0 1001.1,34.0" />
<polygon points="1089.5,51.0 1089.5,85.0 1060.0,102.0 1030.6,85.0 1030.6,51.0 1060.0,34.0" />
<polygon points="1148.3,51.0 1148.3,85.0 1118.9,102.0 1089.5,85.0 1089.5,51.0 1118.9,34.0" />
<polygon points="1207.2,51.0 1207.2,85.0 1177.8,102.0 1148.3,85.0 1148.3,51.0 1177.8,34.0" />
<polygon points="1266.1,51.0 1266.1,85.0 1236.7,102.0 1207.2,85.0 1207.2,51.0 1236.7,34.0" />
<polygon points="1325.0,51.0 1325.0,85.0 1295.6,102.0 1266.1,85.0 1266.1,51.0 1295.6,34.0" />
<polygon points="1383.9,51.0 1383.9,85.0 1354.5,102.0 1325.0,85.0 1325.0,51.0 1354.5,34.0" />
<polygon points="1442.8,51.0 1442.8,85.0 1413.4,102.0 1383.9,85.0 1383.9,51.0 1413.4,34.0" />
<polygon points="1501.7,51.0 1501.7,85.0 1472.2,102.0 1442.8,85.0 1442.8,51.0 1472.2,34.0" />
<polygon points="1560.6,51.0 1560.6,85.0 1531.1,102.0 1501.7,85.0 1501.7,51.0 1531.1,34.0" />
<polygon points="1619.5,51.0 1619.5,85.0 1590.0,102.0 1560.6,85.0 1560.6,51.0 1590.0,34.0" />
<polygon points="1678.4,51.0 1678.4,85.0 1648.9,102.0 1619.5,85.0 1619.5,51.0 1648.9,34.0" />
<polygon points="1737.2,51.0 1737.2,85.0 1707.8,102.0 1678.4,85.0 1678.4,51.0 1707.8,34.0" />
<polygon points="1796.1,51.0 1796.1,85.0 1766.7,102.0 1737.2,85.0 1737.2,51.0 1766.7,34.0" />
<polygon points="1855.0,51.0 1855.0,85.0 1825.6,102.0 1796.1,85.0 1796.1,51.0 1825.6,34.0" />
<polygon points="1913.9,51.0 1913.9,85.0 1884.5,102.0 1855.0,85.0 1855.0,51.0 1884.5,34.0" />
<polygon points="1972.8,51.0 1972.8,85.0 1943.4,102.0 1913.9,85.0 1913.9,51.0 1943.4,34.0" />
<polygon points="0.0,102.0 0.0,136.0 -29.4,153.0 -58.9,136.0 -58.9,102.0 -29.4,85.0" />
<polygon points="58.9,102.0 58.9,136.0 29.4,153.0 -0.0,136.0 0.0,102.0 29.4,85.0" />
<polygon points="117.8,102.0 117.8,136.0 88.3,153.0 58.9,136.0 58.9,102.0 88.3,85.0" />
<polygon points="176.7,102.0 176.7,136.0 147.2,153.0 117.8,136.0 117.8,102.0 147.2,85.0" />
<polygon points="235.6,102.0 235.6,136.0 206.1,153.0 176.7,136.0 176.7,102.0 206.1,85.0" />
<polygon points="294.4,102.0 294.4,136.0 265.0,153.0 235.6,136.0 235.6,102.0 265.0,85.0" />
<polygon points="353.3,102.0 353.3,136.0 323.9,153.0 294.4,136.0 294.4,102.0 323.9,85.0" />
<polygon points="412.2,102.0 412.2,136.0 382.8,153.0 353.3,136.0 353.3,102.0 382.8,85.0" />
<polygon points="471.1,102.0 471.1,136.0 441.7,153.0 412.2,136.0 412.2,102.0 441.7,85.0" />
<polygon points="530.0,102.0 530.0,136.0 500.6,153.0 471.1,136.0 471.1,102.0 500.6,85.0" />
<polygon points="588.9,102.0 588.9,136.0 559.5,153.0 530.0,136.0 530.0,102.0 559.5,85.0" />
<polygon points="647.8,102.0 647.8,136.0 618.3,153.0 588.9,136.0 588.9,102.0 618.3,85.0" />
<polygon points="706.7,102.0 706.7,136.0 677.2,153.0 647.8,136.0 647.8,102.0 677.2,85.0" />
<polygon points="765.6,102.0 765.6,136.0 736.1,153.0 706.7,136.0 706.7,102.0 736.1,85.0" />
<polygon points="824.5,102.0 824.5,136.0 795.0,153.0 765.6,136.0 765.6,102.0 795.0,85.0" />
<polygon points="883.3,102.0 883.3,136.0 853.9,153.0 824.5,136.0 824.5,102.0 853.9,85.0" />
<polygon points="942.2,102.0 942.2,136.0 912.8,153.0 883.3,136.0 883.3,102.0 912.8,85.0" />
<polygon points="1001.1,102.0 1001.1,136.0 971.7,153.0 942.2,136.0 942.2,102.0 971.7,85.0" />
<polygon points="1060.0,102.0 1060.0,136.0 1030.6,153.0 1001.1,136.0 1001.1,102.0 1030.6,85.0" />
<polygon points="1118.9,102.0 1118.9,136.0 1089.5,153.0 1060.0,136.0 1060.0,102.0 1089.5,85.0" />
<polygon points="1177.8,102.0 1177.8,136.0 1148.3,153.0 1118.9,136.0 1118.9,102.0 1148.3,85.0" />
<polygon points="1236.7,102.0 1236.7,136.0 1207.2,153.0 1177.8,136.0 1177.8,102.0 1207.2,85.0" />
<polygon points="1295.6,102.0 1295.6,136.0 1266.1,153.0 1236.7,136.0 1236.7,102.0 1266.1,85.0" />
<polygon points="1354.5,102.0 1354.5,136.0 1325.0,153.0 1295.6,136.0 1295.6,102.0 1325.0,85.0" />
<polygon points="1413.4,102.0 1413.4,136.0 1383.9,153.0 1354.5,136.0 1354.5,102.0 1383.9,85.0" />
<polygon points="1472.2,102.0 1472.2,136.0 1442.8,153.0 1413.4,136.0 1413.4,102.0 1442.8,85.0" />
<polygon points="1531.1,102.0 1531.1,136.0 1501.7,153.0 1472.2,136.0 1472.2,102.0 1501.7,85.0" />
<polygon points="1590.0,102.0 1590.0,136.0 1560.6,153.0 1531.1,136.0 1531.1,102.0 1560.6,85.0" />
<polygon points="1648.9,102.0 1648.9,136.0 1619.5,153.0 1590.0,136.0 1590.0,102.0 1619.5,85.0" />
<polygon points="1707.8,102.0 1707.8,136.0 1678.4,153.0 1648.9,136.0 1648.9,102.0 1678.4,85.0" />
<polygon points="1766.7,102.0 1766.7,136.0 1737.2,153.0 1707.8,136.0 1707.8,102.0 1737.2,85.0" />
<polygon points="1825.6,102.0 1825.6,136.0 1796.1,153.0 1766.7,136.0 1766.7,102.0 1796.1,85.0" />
<polygon points="1884.5,102.0 1884.5,136.0 1855.0,153.0 1825.6,136.0 1825.6,102.0 1855.0,85.0" />
<polygon points="1943.4,102.0 1943.4,136.0 1913.9,153.0 1884.5,136.0 1884.5,102.0 1913.9,85.0" />
<polygon points="2002.3,102.0 2002.3,136.0 1972.8,153.0 1943.4,136.0 1943.4,102.0 1972.8,85.0" />
<polygon points="-29.4,153.0 -29.4,187.0 -58.9,204.0 -88.3,187.0 -88.3,153.0 -58.9,136.0" />
<polygon points="29.4,153.0 29.4,187.0 0.0,204.0 -29.4,187.0 -29.4,153.0 -0.0,136.0" />
<polygon points="88.3,153.0 88.3,187.0 58.9,204.0 29.4,187.0 29.4,153.0 58.9,136.0" />
<polygon points="147.2,153.0 147.2,187.0 117.8,204.0 88.3,187.0 88.3,153.0 117.8,136.0" />
<polygon points="206.1,153.0 206.1,187.0 176.7,204.0 147.2,187.0 147.2,153.0 176.7,136.0" />
<polygon points="265.0,153.0 265.0,187.0 235.6,204.0 206.1,187.0 206.1,153.0 235.6,136.0" />
<polygon points="323.9,153.0 323.9,187.0 294.4,204.0 265.0,187.0 265.0,153.0 294.4,136.0" />
<polygon points="382.8,153.0 382.8,187.0 353.3,204.0 323.9,187.0 323.9,153.0 353.3,136.0" />
<polygon points="441.7,153.0 441.7,187.0 412.2,204.0 382.8,187.0 382.8,153.0 412.2,136.0" />
<polygon points="500.6,153.0 500.6,187.0 471.1,204.0 441.7,187.0 441.7,153.0 471.1,136.0" />
<polygon points="559.5,153.0 559.5,187.0 530.0,204.0 500.6,187.0 500.6,153.0 530.0,136.0" />
<polygon points="618.3,153.0 618.3,187.0 588.9,204.0 559.5,187.0 559.5,153.0 588.9,136.0" />
<polygon points="677.2,153.0 677.2,187.0 647.8,204.0 618.3,187.0 618.3,153.0 647.8,136.0" />
<polygon points="736.1,153.0 736.1,187.0 706.7,204.0 677.2,187.0 677.2,153.0 706.7,136.0" />
<polygon points="795.0,153.0 795.0,187.0 765.6,204.0 736.1,187.0 736.1,153.0 765.6,136.0" />
<polygon points="853.9,153.0 853.9,187.0 824.5,204.0 795.0,187.0 795.0,153.0 824.5,136.0" />
<polygon points="912.8,153.0 912.8,187.0 883.3,204.0 853.9,187.0 853.9,153.0 883.3,136.0" />
<polygon points="971.7,153.0 971.7,187.0 942.2,204.0 912.8,187.0 912.8,153.0 942.2,136.0" />
<polygon points="1030.6,153.0 1030.6,187.0 1001.1,204.0 971.7,187.0 971.7,153.0 1001.1,136.0" />
<polygon points="1089.5,153.0 1089.5,187.0 1060.0,204.0 1030.6,187.0 1030.6,153.0 1060.0,136.0" />
<polygon points="1148.3,153.0 1148.3,187.0 1118.9,204.0 1089.5,187.0 1089.5,153.0 1118.9,136.0" />
<polygon points="1207.2,153.0 1207.2,187.0 1177.8,204.0 1148.3,187.0 1148.3,153.0 1177.8,136.0" />
<polygon points="1266.1,153.0 1266.1,187.0 1236.7,204.0 1207.2,187.0 1207.2,153.0 1236.7,136.0" />
<polygon points="1325.0,153.0 1325.0,187.0 1295.6,204.0 1266.1,187.0 1266.1,153.0 1295.6,136.0" />
<polygon points="1383.9,153.0 1383.9,187.0 1354.5,204.0 1325.0,187.0 1325.0,153.0 1354.5,136.0" />
<polygon points="1442.8,153.0 1442.8,187.0 1413.4,204.0 1383.9,187.0 1383.9,153.0 1413.4,136.0" />
<polygon points="1501.7,153.0 1501.7,187.0 1472.2,204.0 1442.8,187.0 1442.8,153.0 1472.2,136.0" />
<polygon points="1560.6,153.0 1560.6,187.0 1531.1,204.0 1501.7,187.0 1501.7,153.0 1531.1,136.0" />
<polygon points="1619.5,153.0 1619.5,187.0 1590.0,204.0 1560.6,187.0 1560.6,153.0 1590.0,136.0" />
<polygon points="1678.4,153.0 1678.4,187.0 1648.9,204.0 1619.5,187.0 1619.5,153.0 1648.9,136.0" />
<polygon points="1737.2,153.0 1737.2,187.0 1707.8,204.0 1678.4,187.0 1678.4,153.0 1707.8,136.0" />
<polygon points="1796.1,153.0 1796.1,187.0 1766.7,204.0 1737.2,187.0 1737.2,153.0 1766.7,136.0" />
<polygon points="1855.0,153.0 1855.0,187.0 1825.6,204.0 1796.1,187.0 1796.1,153.0 1825.6,136.0" />
<polygon points="1913.9,153.0 1913.9,187.0 1884.5,204.0 1855.0,187.0 1855.0,153.0 1884.5,136.0" />
<polygon points="1972.8,153.0 1972.8,187.0 1943.4,204.0 1913.9,187.0 1913.9,153.0 1943.4,136.0" />
<polygon points="0.0,204.0 0.0,238.0 -29.4,255.0 -58.9,238.0 -58.9,204.0 -29.4,187.0" />
<polygon points="58.9,204.0 58.9,238.0 29.4,255.0 -0.0,238.0 0.0,204.0 29.4,187.0" />
<polygon points="117.8,204.0 117.8,238.0 88.3,255.0 58.9,238.0 58.9,204.0 88.3,187.0" />
<polygon points="176.7,204.0 176.7,238.0 147.2,255.0 117.8,238.0 117.8,204.0 147.2,187.0" />
<polygon points="235.6,204.0 235.6,238.0 206.1,255.0 176.7,238.0 176.7,204.0 206.1,187.0" />
<polygon points="294.4,204.0 294.4,238.0 265.0,255.0 235.6,238.0 235.6,204.0 265.0,187.0" />
<polygon points="353.3,204.0 353.3,238.0 323.9,255.0 294.4,238.0 294.4,204.0 323.9,187.0" />
<polygon points="412.2,204.0 412.2,238.0 382.8,255.0 353.3,238.0 353.3,204.0 382.8,187.0" />
<polygon points="471.1,204.0 471.1,238.0 441.7,255.0 412.2,238.0 412.2,204.0 441.7,187.0" />
<polygon points="530.0,204.0 530.0,238.0 500.6,255.0 471.1,238.0 471.1,204.0 500.6,187.0" />
<polygon points="588.9,204.0 588.9,238.0 559.5,255.0 530.0,238.0 530.0,204.0 559.5,187.0" />
<polygon points="647.8,204.0 647.8,238.0 618.3,255.0 588.9,238.0 588.9,204.0 618.3,187.0" />
<polygon points="706.7,204.0 706.7,238.0 677.2,255.0 647.8,238.0 647.8,204.0 677.2,187.0" />
<polygon points="765.6,204.0 765.6,238.0 736.1,255.0 706.7,238.0 706.7,204.0 736.1,187.0" />
<polygon points="824.5,204.0 824.5,238.0 795.0,255.0 765.6,238.0 765.6,204.0 795.0,187.0" />
<polygon points="883.3,204.0 883.3,238.0 853.9,255.0 824.5,238.0 824.5,204.0 853.9,187.0" />
<polygon points="942.2,204.0 942.2,238.0 912.8,255.0 883.3,238.0 883.3,204.0 912.8,187.0" />
<polygon points="1001.1,204.0 1001.1,238.0 971.7,255.0 942.2,238.0 942.2,204.0 971.7,187.0" />
<polygon points="1060.0,204.0 1060.0,238.0 1030.6,255.0 1001.1,238.0 1001.1,204.0 1030.6,187.0" />
<polygon points="1118.9,204.0 1118.9,238.0 1089.5,255.0 1060.0,238.0 1060.0,204.0 1089.5,187.0" />
<polygon points="1177.8,204.0 1177.8,238.0 1148.3,255.0 1118.9,238.0 1118.9,204.0 1148.3,187.0" />
<polygon points="1236.7,204.0 1236.7,238.0 1207.2,255.0 1177.8,238.0 1177.8,204.0 1207.2,187.0" />
<polygon points="1295.6,204.0 1295.6,238.0 1266.1,255.0 1236.7,238.0 1236.7,204.0 1266.1,187.0" />
<polygon points="1354.5,204.0 1354.5,238.0 1325.0,255.0 1295.6,238.0 1295.6,204.0 1325.0,187.0" />
<polygon points="1413.4,204.0 1413.4,238.0 1383.9,255.0 1354.5,238.0 1354.5,204.0 1383.9,187.0" />
<polygon points="1472.2,204.0 1472.2,238.0 1442.8,255.0 1413.4,238.0 1413.4,204.0 1442.8,187.0" />
<polygon points="1531.1,204.0 1531.1,238.0 1501.7,255.0 1472.2,238.0 1472.2,204.0 1501.7,187.0" />
<polygon points="1590.0,204.0 1590.0,238.0 1560.6,255.0 1531.1,238.0 1531.1,204.0 1560.6,187.0" />
<polygon points="1648.9,204.0 1648.9,238.0 1619.5,255.0 1590.0,238.0 1590.0,204.0 1619.5,187.0" />
<polygon points="1707.8,204.0 1707.8,238.0 1678.4,255.0 1648.9,238.0 1648.9,204.0 1678.4,187.0" />
<polygon points="1766.7,204.0 1766.7,238.0 1737.2,255.0 1707.8,238.0 1707.8,204.0 1737.2,187.0" />
<polygon points="1825.6,204.0 1825.6,238.0 1796.1,255.0 1766.7,238.0 1766.7,204.0 1796.1,187.0" />
<polygon points="1884.5,204.0 1884.5,238.0 1855.0,255.0 1825.6,238.0 1825.6,204.0 1855.0,187.0" />
<polygon points="1943.4,204.0 1943.4,238.0 1913.9,255.0 1884.5,238.0 1884.5,204.0 1913.9,187.0" />
<polygon points="2002.3,204.0 2002.3,238.0 1972.8,255.0 1943.4,238.0 1943.4,204.0 1972.8,187.0" />
<polygon points="-29.4,255.0 -29.4,289.0 -58.9,306.0 -88.3,289.0 -88.3,255.0 -58.9,238.0" />
<polygon points="29.4,255.0 29.4,289.0 0.0,306.0 -29.4,289.0 -29.4,255.0 -0.0,238.0" />
<polygon points="88.3,255.0 88.3,289.0 58.9,306.0 29.4,289.0 29.4,255.0 58.9,238.0" />
<polygon points="147.2,255.0 147.2,289.0 117.8,306.0 88.3,289.0 88.3,255.0 117.8,238.0" />
<polygon points="206.1,255.0 206.1,289.0 176.7,306.0 147.2,289.0 147.2,255.0 176.7,238.0" />
<polygon points="265.0,255.0 265.0,289.0 235.6,306.0 206.1,289.0 206.1,255.0 235.6,238.0" />
<polygon points="323.9,255.0 323.9,289.0 294.4,306.0 265.0,289.0 265.0,255.0 294.4,238.0" />
<polygon points="382.8,255.0 382.8,289.0 353.3,306.0 323.9,289.0 323.9,255.0 353.3,238.0" />
<polygon points="441.7,255.0 441.7,289.0 412.2,306.0 382.8,289.0 382.8,255.0 412.2,238.0" />
<polygon points="500.6,255.0 500.6,289.0 471.1,306.0 441.7,289.0 441.7,255.0 471.1,238.0" />
<polygon points="559.5,255.0 559.5,289.0 530.0,306.0 500.6,289.0 500.6,255.0 530.0,238.0" />
<polygon points="618.3,255.0 618.3,289.0 588.9,306.0 559.5,289.0 559.5,255.0 588.9,238.0" />
<polygon points="677.2,255.0 677.2,289.0 647.8,306.0 618.3,289.0 618.3,255.0 647.8,238.0" />
<polygon points="736.1,255.0 736.1,289.0 706.7,306.0 677.2,289.0 677.2,255.0 706.7,238.0" />
<polygon points="795.0,255.0 795.0,289.0 765.6,306.0 736.1,289.0 736.1,255.0 765.6,238.0" />
<polygon points="853.9,255.0 853.9,289.0 824.5,306.0 795.0,289.0 795.0,255.0 824.5,238.0" />
<polygon points="912.8,255.0 912.8,289.0 883.3,306.0 853.9,289.0 853.9,255.0 883.3,238.0" />
<polygon points="971.7,255.0 971.7,289.0 942.2,306.0 912.8,289.0 912.8,255.0 942.2,238.0" />
<polygon points="1030.6,255.0 1030.6,289.0 1001.1,306.0 971.7,289.0 971.7,255.0 1001.1,238.0" />
<polygon points="1089.5,255.0 1089.5,289.0 1060.0,306.0 1030.6,289.0 1030.6,255.0 1060.0,238.0" />
<polygon points="1148.3,255.0 1148.3,289.0 1118.9,306.0 1089.5,289.0 1089.5,255.0 1118.9,238.0" />
<polygon points="1207.2,255.0 1207.2,289.0 1177.8,306.0 1148.3,289.0 1148.3,255.0 1177.8,238.0" />
<polygon points="1266.1,255.0 1266.1,289.0 1236.7,306.0 1207.2,289.0 1207.2,255.0 1236.7,238.0" />
<polygon points="1325.0,255.0 1325.0,289.0 1295.6,306.0 1266.1,289.0 1266.1,255.0 1295.6,238.0" />
<polygon points="1383.9,255.0 1383.9,289.0 1354.5,306.0 1325.0,289.0 1325.0,255.0 1354.5,238.0" />
<polygon points="1442.8,255.0 1442.8,289.0 1413.4,306.0 1383.9,289.0 1383.9,255.0 1413.4,238.0" />
<polygon points="1501.7,255.0 1501.7,289.0 1472.2,306.0 1442.8,289.0 1442.8,255.0 1472.2,238.0" />
<polygon points="1560.6,255.0 1560.6,289.0 1531.1,306.0 1501.7,289.0 1501.7,255.0 1531.1,238.0" />
<polygon points="1619.5,255.0 1619.5,289.0 1590.0,306.0 1560.6,289.0 1560.6,255.0 1590.0,238.0" />
<polygon points="1678.4,255.0 1678.4,289.0 1648.9,306.0 1619.5,289.0 1619.5,255.0 1648.9,238.0" />
<polygon points="1737.2,255.0 1737.2,289.0 1707.8,306.0 1678.4,289.0 1678.4,255.0 1707.8,238.0" />
<polygon points="1796.1,255.0 1796.1,289.0 1766.7,306.0 1737.2,289.0 1737.2,255.0 1766.7,238.0" />
<polygon points="1855.0,255.0 1855.0,289.0 1825.6,306.0 1796.1,289.0 1796.1,255.0 1825.6,238.0" />
<polygon points="1913.9,255.0 1913.9,289.0 1884.5,306.0 1855.0,289.0 1855.0,255.0 1884.5,238.0" />
<polygon points="1972.8,255.0 1972.8,289.0 1943.4,306.0 1913.9,289.0 1913.9,255.0 1943.4,238.0" />
<polygon points="0.0,306.0 0.0,340.0 -29.4,357.0 -58.9,340.0 -58.9,306.0 -29.4,289.0" />
<polygon points="58.9,306.0 58.9,340.0 29.4,357.0 -0.0,340.0 0.0,306.0 29.4,289.0" />
<polygon points="117.8,306.0 117.8,340.0 88.3,357.0 58.9,340.0 58.9,306.0 88.3,289.0" />
<polygon points="176.7,306.0 176.7,340.0 147.2,357.0 117.8,340.0 117.8,306.0 147.2,289.0" />
<polygon points="235.6,306.0 235.6,340.0 206.1,357.0 176.7,340.0 176.7,306.0 206.1,289.0" />
<polygon points="294.4,306.0 294.4,340.0 265.0,357.0 235.6,340.0 235.6,306.0 265.0,289.0" />
<polygon points="353.3,306.0 353.3,340.0 323.9,357.0 294.4,340.0 294.4,306.0 323.9,289.0" />
<polygon points="412.2,306.0 412.2,340.0 382.8,357.0 353.3,340.0 353.3,306.0 382.8,289.0" />
<polygon points="471.1,306.0 471.1,340.0 441.7,357.0 412.2,340.0 412.2,306.0 441.7,289.0" />
<polygon points="530.0,306.0 530.0,340.0 500.6,357.0 471.1,340.0 471.1,306.0 500.6,289.0" />
<polygon points="588.9,306.0 588.9,340.0 559.5,357.0 530.0,340.0 530.0,306.0 559.5,289.0" />
<polygon points="647.8,306.0 647.8,340.0 618.3,357.0 588.9,340.0 588.9,306.0 618.3,289.0" />
<polygon points="706.7,306.0 706.7,340.0 677.2,357.0 647.8,340.0 647.8,306.0 677.2,289.0" />
<polygon points="765.6,306.0 765.6,340.0 736.1,357.0 706.7,340.0 706.7,306.0 736.1,289.0" />
<polygon points="824.5,306.0 824.5,340.0 795.0,357.0 765.6,340.0 765.6,306.0 795.0,289.0" />
<polygon points="883.3,306.0 883.3,340.0 853.9,357.0 824.5,340.0 824.5,306.0 853.9,289.0" />
<polygon points="942.2,306.0 942.2,340.0 912.8,357.0 883.3,340.0 883.3,306.0 912.8,289.0" />
<polygon points="1001.1,306.0 1001.1,340.0 971.7,357.0 942.2,340.0 942.2,306.0 971.7,289.0" />
<polygon points="1060.0,306.0 1060.0,340.0 1030.6,357.0 1001.1,340.0 1001.1,306.0 1030.6,289.0" />
<polygon points="1118.9,306.0 1118.9,340.0 1089.5,357.0 1060.0,340.0 1060.0,306.0 1089.5,289.0" />
<polygon points="1177.8,306.0 1177.8,340.0 1148.3,357.0 1118.9,340.0 1118.9,306.0 1148.3,289.0" />
<polygon points="1236.7,306.0 1236.7,340.0 1207.2,357.0 1177.8,340.0 1177.8,306.0 1207.2,289.0" />
<polygon points="1295.6,306.0 1295.6,340.0 1266.1,357.0 1236.7,340.0 1236.7,306.0 1266.1,289.0" />
<polygon points="1354.5,306.0 1354.5,340.0 1325.0,357.0 1295.6,340.0 1295.6,306.0 1325.0,289.0" />
<polygon points="1413.4,306.0 1413.4,340.0 1383.9,357.0 1354.5,340.0 1354.5,306.0 1383.9,289.0" />
<polygon points="1472.2,306.0 1472.2,340.0 1442.8,357.0 1413.4,340.0 1413.4,306.0 1442.8,289.0" />
<polygon points="1531.1,306.0 1531.1,340.0 1501.7,357.0 1472.2,340.0 1472.2,306.0 1501.7,289.0" />
<polygon points="1590.0,306.0 1590.0,340.0 1560.6,357.0 1531.1,340.0 1531.1,306.0 1560.6,289.0" />
<polygon points="1648.9,306.0 1648.9,340.0 1619.5,357.0 1590.0,340.0 1590.0,306.0 1619.5,289.0" />
<polygon points="1707.8,306.0 1707.8,340.0 1678.4,357.0 1648.9,340.0 1648.9,306.0 1678.4,289.0" />
<polygon points="1766.7,306.0 1766.7,340.0 1737.2,357.0 1707.8,340.0 1707.8,306.0 1737.2,289.0" />
<polygon points="1825.6,306.0 1825.6,340.0 1796.1,357.0 1766.7,340.0 1766.7,306.0 1796.1,289.0" />
<polygon points="1884.5,306.0 1884.5,340.0 1855.0,357.0 1825.6,340.0 1825.6,306.0 1855.0,289.0" />
<polygon points="1943.4,306.0 1943.4,340.0 1913.9,357.0 1884.5,340.0 1884.5,306.0 1913.9,289.0" />
<polygon points="2002.3,306.0 2002.3,340.0 1972.8,357.0 1943.4,340.0 1943.4,306.0 1972.8,289.0" />
<polygon points="-29.4,357.0 -29.4,391.0 -58.9,408.0 -88.3,391.0 -88.3,357.0 -58.9,340.0" />
<polygon points="29.4,357.0 29.4,391.0 0.0,408.0 -29.4,391.0 -29.4,357.0 -0.0,340.0" />
<polygon points="88.3,357.0 88.3,391.0 58.9,408.0 29.4,391.0 29.4,357.0 58.9,340.0" />
<polygon points="147.2,357.0 147.2,391.0 117.8,408.0 88.3,391.0 88.3,357.0 117.8,340.0" />
<polygon points="206.1,357.0 206.1,391.0 176.7,408.0 147.2,391.0 147.2,357.0 176.7,340.0" />
<polygon points="265.0,357.0 265.0,391.0 235.6,408.0 206.1,391.0 206.1,357.0 235.6,340.0" />
<polygon points="323.9,357.0 323.9,391.0 294.4,408.0 265.0,391.0 265.0,357.0 294.4,340.0" />
<polygon points="382.8,357.0 382.8,391.0 353.3,408.0 323.9,391.0 323.9,357.0 353.3,340.0" />
<polygon points="441.7,357.0 441.7,391.0 412.2,408.0 382.8,391.0 382.8,357.0 412.2,340.0" />
<polygon points="500.6,357.0 500.6,391.0 471.1,408.0 441.7,391.0 441.7,357.0 471.1,340.0" />
<polygon points="559.5,357.0 559.5,391.0 530.0,408.0 500.6,391.0 500.6,357.0 530.0,340.0" />
<polygon points="618.3,357.0 618.3,391.0 588.9,408.0 559.5,391.0 559.5,357.0 588.9,340.0" />
<polygon points="677.2,357.0 677.2,391.0 647.8,408.0 618.3,391.0 618.3,357.0 647.8,340.0" />
<polygon points="736.1,357.0 736.1,391.0 706.7,408.0 677.2,391.0 677.2,357.0 706.7,340.0" />
<polygon points="795.0,357.0 795.0,391.0 765.6,408.0 736.1,391.0 736.1,357.0 765.6,340.0" />
<polygon points="853.9,357.0 853.9,391.0 824.5,408.0 795.0,391.0 795.0,357.0 824.5,340.0" />
<polygon points="912.8,357.0 912.8,391.0 883.3,408.0 853.9,391.0 853.9,357.0 883.3,340.0" />
<polygon points="971.7,357.0 971.7,391.0 942.2,408.0 912.8,391.0 912.8,357.0 942.2,340.0" />
<polygon points="1030.6,357.0 1030.6,391.0 1001.1,408.0 971.7,391.0 971.7,357.0 1001.1,340.0" />
<polygon points="1089.5,357.0 1089.5,391.0 1060.0,408.0 1030.6,391.0 1030.6,357.0 1060.0,340.0" />
<polygon points="1148.3,357.0 1148.3,391.0 1118.9,408.0 1089.5,391.0 1089.5,357.0 1118.9,340.0" />
<polygon points="1207.2,357.0 1207.2,391.0 1177.8,408.0 1148.3,391.0 1148.3,357.0 1177.8,340.0" />
<polygon points="1266.1,357.0 1266.1,391.0 1236.7,408.0 1207.2,391.0 1207.2,357.0 1236.7,340.0" />
<polygon points="1325.0,357.0 1325.0,391.0 1295.6,408.0 1266.1,391.0 1266.1,357.0 1295.6,340.0" />
<polygon points="1383.9,357.0 1383.9,391.0 1354.5,408.0 1325.0,391.0 1325.0,357.0 1354.5,340.0" />
<polygon points="1442.8,357.0 1442.8,391.0 1413.4,408.0 1383.9,391.0 1383.9,357.0 1413.4,340.0" />
<polygon points="1501.7,357.0 1501.7,391.0 1472.2,408.0 1442.8,391.0 1442.8,357.0 1472.2,340.0" />
<polygon points="1560.6,357.0 1560.6,391.0 1531.1,408.0 1501.7,391.0 1501.7,357.0 1531.1,340.0" />
<polygon points="1619.5,357.0 1619.5,391.0 1590.0,408.0 1560.6,391.0 1560.6,357.0 1590.0,340.0" />
<polygon points="1678.4,357.0 1678.4,391.0 1648.9,408.0 1619.5,391.0 1619.5,357.0 1648.9,340.0" />
<polygon points="1737.2,357.0 1737.2,391.0 1707.8,408.0 1678.4,391.0 1678.4,357.0 1707.8,340.0" />
<polygon points="1796.1,357.0 1796.1,391.0 1766.7,408.0 1737.2,391.0 1737.2,357.0 1766.7,340.0" />
<polygon points="1855.0,357.0 1855.0,391.0 1825.6,408.0 1796.1,391.0 1796.1,357.0 1825.6,340.0" />
<polygon points="1913.9,357.0 1913.9,391.0 1884.5,408.0 1855.0,391.0 1855.0,357.0 1884.5,340.0" />
<polygon points="1972.8,357.0 1972.8,391.0 1943.4,408.0 1913.9,391.0 1913.9,357.0 1943.4,340.0" />
<polygon points="0.0,408.0 0.0,442.0 -29.4,459.0 -58.9,442.0 -58.9,408.0 -29.4,391.0" />
<polygon points="58.9,408.0 58.9,442.0 29.4,459.0 -0.0,442.0 0.0,408.0 29.4,391.0" />
<polygon points="117.8,408.0 117.8,442.0 88.3,459.0 58.9,442.0 58.9,408.0 88.3,391.0" />
<polygon points="176.7,408.0 176.7,442.0 147.2,459.0 117.8,442.0 117.8,408.0 147.2,391.0" />
<polygon points="235.6,408.0 235.6,442.0 206.1,459.0 176.7,442.0 176.7,408.0 206.1,391.0" />
<polygon points="294.4,408.0 294.4,442.0 265.0,459.0 235.6,442.0 235.6,408.0 265.0,391.0" />
<polygon points="353.3,408.0 353.3,442.0 323.9,459.0 294.4,442.0 294.4,408.0 323.9,391.0" />
<polygon points="412.2,408.0 412.2,442.0 382.8,459.0 353.3,442.0 353.3,408.0 382.8,391.0" />
<polygon points="471.1,408.0 471.1,442.0 441.7,459.0 412.2,442.0 412.2,408.0 441.7,391.0" />
<polygon points="530.0,408.0 530.0,442.0 500.6,459.0 471.1,442.0 471.1,408.0 500.6,391.0" />
<polygon points="588.9,408.0 588.9,442.0 559.5,459.0 530.0,442.0 530.0,408.0 559.5,391.0" />
<polygon points="647.8,408.0 647.8,442.0 618.3,459.0 588.9,442.0 588.9,408.0 618.3,391.0" />
<polygon points="706.7,408.0 706.7,442.0 677.2,459.0 647.8,442.0 647.8,408.0 677.2,391.0" />
<polygon points="765.6,408.0 765.6,442.0 736.1,459.0 706.7,442.0 706.7,408.0 736.1,391.0" />
<polygon points="824.5,408.0 824.5,442.0 795.0,459.0 765.6,442.0 765.6,408.0 795.0,391.0" />
<polygon points="883.3,408.0 883.3,442.0 853.9,459.0 824.5,442.0 824.5,408.0 853.9,391.0" />
<polygon points="942.2,408.0 942.2,442.0 912.8,459.0 883.3,442.0 883.3,408.0 912.8,391.0" />
<polygon points="1001.1,408.0 1001.1,442.0 971.7,459.0 942.2,442.0 942.2,408.0 971.7,391.0" />
<polygon points="1060.0,408.0 1060.0,442.0 1030.6,459.0 1001.1,442.0 1001.1,408.0 1030.6,391.0" />
<polygon points="1118.9,408.0 1118.9,442.0 1089.5,459.0 1060.0,442.0 1060.0,408.0 1089.5,391.0" />
<polygon points="1177.8,408.0 1177.8,442.0 1148.3,459.0 1118.9,442.0 1118.9,408.0 1148.3,391.0" />
<polygon points="1236.7,408.0 1236.7,442.0 1207.2,459.0 1177.8,442.0 1177.8,408.0 1207.2,391.0" />
<polygon points="1295.6,408.0 1295.6,442.0 1266.1,459.0 1236.7,442.0 1236.7,408.0 1266.1,391.0" />
<polygon points="1354.5,408.0 1354.5,442.0 1325.0,459.0 1295.6,442.0 1295.6,408.0 1325.0,391.0" />
<polygon points="1413.4,408.0 1413.4,442.0 1383.9,459.0 1354.5,442.0 1354.5,408.0 1383.9,391.0" />
<polygon points="1472.2,408.0 1472.2,442.0 1442.8,459.0 1413.4,442.0 1413.4,408.0 1442.8,391.0" />
<polygon points="1531.1,408.0 1531.1,442.0 1501.7,459.0 1472.2,442.0 1472.2,408.0 1501.7,391.0" />
<polygon points="1590.0,408.0 1590.0,442.0 1560.6,459.0 1531.1,442.0 1531.1,408.0 1560.6,391.0" />
<polygon points="1648.9,408.0 1648.9,442.0 1619.5,459.0 1590.0,442.0 1590.0,408.0 1619.5,391.0" />
<polygon points="1707.8,408.0 1707.8,442.0 1678.4,459.0 1648.9,442.0 1648.9,408.0 1678.4,391.0" />
<polygon points="1766.7,408.0 1766.7,442.0 1737.2,459.0 1707.8,442.0 1707.8,408.0 1737.2,391.0" />
<polygon points="1825.6,408.0 1825.6,442.0 1796.1,459.0 1766.7,442.0 1766.7,408.0 1796.1,391.0" />
<polygon points="1884.5,408.0 1884.5,442.0 1855.0,459.0 1825.6,442.0 1825.6,408.0 1855.0,391.0" />
<polygon points="1943.4,408.0 1943.4,442.0 1913.9,459.0 1884.5,442.0 1884.5,408.0 1913.9,391.0" />
<polygon points="2002.3,408.0 2002.3,442.0 1972.8,459.0 1943.4,442.0 1943.4,408.0 1972.8,391.0" />
<polygon points="-29.4,459.0 -29.4,493.0 -58.9,510.0 -88.3,493.0 -88.3,459.0 -58.9,442.0" />
<polygon points="29.4,459.0 29.4,493.0 0.0,510.0 -29.4,493.0 -29.4,459.0 -0.0,442.0" />
<polygon points="88.3,459.0 88.3,493.0 58.9,510.0 29.4,493.0 29.4,459.0 58.9,442.0" />
<polygon points="147.2,459.0 147.2,493.0 117.8,510.0 88.3,493.0 88.3,459.0 117.8,442.0" />
<polygon points="206.1,459.0 206.1,493.0 176.7,510.0 147.2,493.0 147.2,459.0 176.7,442.0" />
<polygon points="265.0,459.0 265.0,493.0 235.6,510.0 206.1,493.0 206.1,459.0 235.6,442.0" />
<polygon points="323.9,459.0 323.9,493.0 294.4,510.0 265.0,493.0 265.0,459.0 294.4,442.0" />
<polygon points="382.8,459.0 382.8,493.0 353.3,510.0 323.9,493.0 323.9,459.0 353.3,442.0" />
<polygon points="441.7,459.0 441.7,493.0 412.2,510.0 382.8,493.0 382.8,459.0 412.2,442.0" />
<polygon points="500.6,459.0 500.6,493.0 471.1,510.0 441.7,493.0 441.7,459.0 471.1,442.0" />
<polygon points="559.5,459.0 559.5,493.0 530.0,510.0 500.6,493.0 500.6,459.0 530.0,442.0" />
<polygon points="618.3,459.0 618.3,493.0 588.9,510.0 559.5,493.0 559.5,459.0 588.9,442.0" />
<polygon points="677.2,459.0 677.2,493.0 647.8,510.0 618.3,493.0 618.3,459.0 647.8,442.0" />
<polygon points="736.1,459.0 736.1,493.0 706.7,510.0 677.2,493.0 677.2,459.0 706.7,442.0" />
<polygon points="795.0,459.0 795.0,493.0 765.6,510.0 736.1,493.0 736.1,459.0 765.6,442.0" />
<polygon points="853.9,459.0 853.9,493.0 824.5,510.0 795.0,493.0 795.0,459.0 824.5,442.0" />
<polygon points="912.8,459.0 912.8,493.0 883.3,510.0 853.9,493.0 853.9,459.0 883.3,442.0" />
<polygon points="971.7,459.0 971.7,493.0 942.2,510.0 912.8,493.0 912.8,459.0 942.2,442.0" />
<polygon points="1030.6,459.0 1030.6,493.0 1001.1,510.0 971.7,493.0 971.7,459.0 1001.1,442.0" />
<polygon points="1089.5,459.0 1089.5,493.0 1060.0,510.0 1030.6,493.0 1030.6,459.0 1060.0,442.0" />
<polygon points="1148.3,459.0 1148.3,493.0 1118.9,510.0 1089.5,493.0 1089.5,459.0 1118.9,442.0" />
<polygon points="1207.2,459.0 1207.2,493.0 1177.8,510.0 1148.3,493.0 1148.3,459.0 1177.8,442.0" />
<polygon points="1266.1,459.0 1266.1,493.0 1236.7,510.0 1207.2,493.0 1207.2,459.0 1236.7,442.0" />
<polygon points="1325.0,459.0 1325.0,493.0 1295.6,510.0 1266.1,493.0 1266.1,459.0 1295.6,442.0" />
<polygon points="1383.9,459.0 1383.9,493.0 1354.5,510.0 1325.0,493.0 1325.0,459.0 1354.5,442.0" />
<polygon points="1442.8,459.0 1442.8,493.0 1413.4,510.0 1383.9,493.0 1383.9,459.0 1413.4,442.0" />
<polygon points="1501.7,459.0 1501.7,493.0 1472.2,510.0 1442.8,493.0 1442.8,459.0 1472.2,442.0" />
<polygon points="1560.6,459.0 1560.6,493.0 1531.1,510.0 1501.7,493.0 1501.7,459.0 1531.1,442.0" />
<polygon points="1619.5,459.0 1619.5,493.0 1590.0,510.0 1560.6,493.0 1560.6,459.0 1590.0,442.0" />
<polygon points="1678.4,459.0 1678.4,493.0 1648.9,510.0 1619.5,493.0 1619.5,459.0 1648.9,442.0" />
<polygon points="1737.2,459.0 1737.2,493.0 1707.8,510.0 1678.4,493.0 1678.4,459.0 1707.8,442.0" />
<polygon points="1796.1,459.0 1796.1,493.0 1766.7,510.0 1737.2,493.0 1737.2,459.0 1766.7,442.0" />
<polygon points="1855.0,459.0 1855.0,493.0 1825.6,510.0 1796.1,493.0 1796.1,459.0 1825.6,442.0" />
<polygon points="1913.9,459.0 1913.9,493.0 1884.5,510.0 1855.0,493.0 1855.0,459.0 1884.5,442.0" />
<polygon points="1972.8,459.0 1972.8,493.0 1943.4,510.0 1913.9,493.0 1913.9,459.0 1943.4,442.0" />
<polygon points="0.0,510.0 0.0,544.0 -29.4,561.0 -58.9,544.0 -58.9,510.0 -29.4,493.0" />
<polygon points="58.9,510.0 58.9,544.0 29.4,561.0 -0.0,544.0 0.0,510.0 29.4,493.0" />
<polygon points="117.8,510.0 117.8,544.0 88.3,561.0 58.9,544.0 58.9,510.0 88.3,493.0" />
<polygon points="176.7,510.0 176.7,544.0 147.2,561.0 117.8,544.0 117.8,510.0 147.2,493.0" />
<polygon points="235.6,510.0 235.6,544.0 206.1,561.0 176.7,544.0 176.7,510.0 206.1,493.0" />
<polygon points="294.4,510.0 294.4,544.0 265.0,561.0 235.6,544.0 235.6,510.0 265.0,493.0" />
<polygon points="353.3,510.0 353.3,544.0 323.9,561.0 294.4,544.0 294.4,510.0 323.9,493.0" />
<polygon points="412.2,510.0 412.2,544.0 382.8,561.0 353.3,544.0 353.3,510.0 382.8,493.0" />
<polygon points="471.1,510.0 471.1,544.0 441.7,561.0 412.2,544.0 412.2,510.0 441.7,493.0" />
<polygon points="530.0,510.0 530.0,544.0 500.6,561.0 471.1,544.0 471.1,510.0 500.6,493.0" />
<polygon points="588.9,510.0 588.9,544.0 559.5,561.0 530.0,544.0 530.0,510.0 559.5,493.0" />
<polygon points="647.8,510.0 647.8,544.0 618.3,561.0 588.9,544.0 588.9,510.0 618.3,493.0" />
<polygon points="706.7,510.0 706.7,544.0 677.2,561.0 647.8,544.0 647.8,510.0 677.2,493.0" />
<polygon points="765.6,510.0 765.6,544.0 736.1,561.0 706.7,544.0 706.7,510.0 736.1,493.0" />
<polygon points="824.5,510.0 824.5,544.0 795.0,561.0 765.6,544.0 765.6,510.0 795.0,493.0" />
<polygon points="883.3,510.0 883.3,544.0 853.9,561.0 824.5,544.0 824.5,510.0 853.9,493.0" />
<polygon points="942.2,510.0 942.2,544.0 912.8,561.0 883.3,544.0 883.3,510.0 912.8,493.0" />
<polygon points="1001.1,510.0 1001.1,544.0 971.7,561.0 942.2,544.0 942.2,510.0 971.7,493.0" />
<polygon points="1060.0,510.0 1060.0,544.0 1030.6,561.0 1001.1,544.0 1001.1,510.0 1030.6,493.0" />
<polygon points="1118.9,510.0 1118.9,544.0 1089.5,561.0 1060.0,544.0 1060.0,510.0 1089.5,493.0" />
<polygon points="1177.8,510.0 1177.8,544.0 1148.3,561.0 1118.9,544.0 1118.9,510.0 1148.3,493.0" />
<polygon points="1236.7,510.0 1236.7,544.0 1207.2,561.0 1177.8,544.0 1177.8,510.0 1207.2,493.0" />
<polygon points="1295.6,510.0 1295.6,544.0 1266.1,561.0 1236.7,544.0 1236.7,510.0 1266.1,493.0" />
<polygon points="1354.5,510.0 1354.5,544.0 1325.0,561.0 1295.6,544.0 1295.6,510.0 1325.0,493.0" />
<polygon points="1413.4,510.0 1413.4,544.0 1383.9,561.0 1354.5,544.0 1354.5,510.0 1383.9,493.0" />
<polygon points="1472.2,510.0 1472.2,544.0 1442.8,561.0 1413.4,544.0 1413.4,510.0 1442.8,493.0" />
<polygon points="1531.1,510.0 1531.1,544.0 1501.7,561.0 1472.2,544.0 1472.2,510.0 1501.7,493.0" />
<polygon points="1590.0,510.0 1590.0,544.0 1560.6,561.0 1531.1,544.0 1531.1,510.0 1560.6,493.0" />
<polygon points="1648.9,510.0 1648.9,544.0 1619.5,561.0 1590.0,544.0 1590.0,510.0 1619.5,493.0" />
<polygon points="1707.8,510.0 1707.8,544.0 1678.4,561.0 1648.9,544.0 1648.9,510.0 1678.4,493.0" />
<polygon points="1766.7,510.0 1766.7,544.0 1737.2,561.0 1707.8,544.0 1707.8,510.0 1737.2,493.0" />
<polygon points="1825.6,510.0 1825.6,544.0 1796.1,561.0 1766.7,544.0 1766.7,510.0 1796.1,493.0" />
<polygon points="1884.5,510.0 1884.5,544.0 1855.0,561.0 1825.6,544.0 1825.6,510.0 1855.0,493.0" />
<polygon points="1943.4,510.0 1943.4,544.0 1913.9,561.0 1884.5,544.0 1884.5,510.0 1913.9,493.0" />
<polygon points="2002.3,510.0 2002.3,544.0 1972.8,561.0 1943.4,544.0 1943.4,510.0 1972.8,493.0" />
<polygon points="-29.4,561.0 -29.4,595.0 -58.9,612.0 -88.3,595.0 -88.3,561.0 -58.9,544.0" />
<polygon points="29.4,561.0 29.4,595.0 0.0,612.0 -29.4,595.0 -29.4,561.0 -0.0,544.0" />
<polygon points="88.3,561.0 88.3,595.0 58.9,612.0 29.4,595.0 29.4,561.0 58.9,544.0" />
<polygon points="147.2,561.0 147.2,595.0 117.8,612.0 88.3,595.0 88.3,561.0 117.8,544.0" />
<polygon points="206.1,561.0 206.1,595.0 176.7,612.0 147.2,595.0 147.2,561.0 176.7,544.0" />
<polygon points="265.0,561.0 265.0,595.0 235.6,612.0 206.1,595.0 206.1,561.0 235.6,544.0" />
<polygon points="323.9,561.0 323.9,595.0 294.4,612.0 265.0,595.0 265.0,561.0 294.4,544.0" />
<polygon points="382.8,561.0 382.8,595.0 353.3,612.0 323.9,595.0 323.9,561.0 353.3,544.0" />
<polygon points="441.7,561.0 441.7,595.0 412.2,612.0 382.8,595.0 382.8,561.0 412.2,544.0" />
<polygon points="500.6,561.0 500.6,595.0 471.1,612.0 441.7,595.0 441.7,561.0 471.1,544.0" />
<polygon points="559.5,561.0 559.5,595.0 530.0,612.0 500.6,595.0 500.6,561.0 530.0,544.0" />
<polygon points="618.3,561.0 618.3,595.0 588.9,612.0 559.5,595.0 559.5,561.0 588.9,544.0" />
<polygon points="677.2,561.0 677.2,595.0 647.8,612.0 618.3,595.0 618.3,561.0 647.8,544.0" />
<polygon points="736.1,561.0 736.1,595.0 706.7,612.0 677.2,595.0 677.2,561.0 706.7,544.0" />
<polygon points="795.0,561.0 795.0,595.0 765.6,612.0 736.1,595.0 736.1,561.0 765.6,544.0" />
<polygon points="853.9,561.0 853.9,595.0 824.5,612.0 795.0,595.0 795.0,561.0 824.5,544.0" />
<polygon points="912.8,561.0 912.8,595.0 883.3,612.0 853.9,595.0 853.9,561.0 883.3,544.0" />
<polygon points="971.7,561.0 971.7,595.0 942.2,612.0 912.8,595.0 912.8,561.0 942.2,544.0" />
<polygon points="1030.6,561.0 1030.6,595.0 1001.1,612.0 971.7,595.0 971.7,561.0 1001.1,544.0" />
<polygon points="1089.5,561.0 1089.5,595.0 1060.0,612.0 1030.6,595.0 1030.6,561.0 1060.0,544.0" />
<polygon points="1148.3,561.0 1148.3,595.0 1118.9,612.0 1089.5,595.0 1089.5,561.0 1118.9,544.0" />
<polygon points="1207.2,561.0 1207.2,595.0 1177.8,612.0 1148.3,595.0 1148.3,561.0 1177.8,544.0" />
<polygon points="1266.1,561.0 1266.1,595.0 1236.7,612.0 1207.2,595.0 1207.2,561.0 1236.7,544.0" />
<polygon points="1325.0,561.0 1325.0,595.0 1295.6,612.0 1266.1,595.0 1266.1,561.0 1295.6,544.0" />
<polygon points="1383.9,561.0 1383.9,595.0 1354.5,612.0 1325.0,595.0 1325.0,561.0 1354.5,544.0" />
<polygon points="1442.8,561.0 1442.8,595.0 1413.4,612.0 1383.9,595.0 1383.9,561.0 1413.4,544.0" />
<polygon points="1501.7,561.0 1501.7,595.0 1472.2,612.0 1442.8,595.0 1442.8,561.0 1472.2,544.0" />
<polygon points="1560.6,561.0 1560.6,595.0 1531.1,612.0 1501.7,595.0 1501.7,561.0 1531.1,544.0" />
<polygon points="1619.5,561.0 1619.5,595.0 1590.0,612.0 1560.6,595.0 1560.6,561.0 1590.0,544.0" />
<polygon points="1678.4,561.0 1678.4,595.0 1648.9,612.0 1619.5,595.0 1619.5,561.0 1648.9,544.0" />
<polygon points="1737.2,561.0 1737.2,595.0 1707.8,612.0 1678.4,595.0 1678.4,561.0 1707.8,544.0" />
<polygon points="1796.1,561.0 1796.1,595.0 1766.7,612.0 1737.2,595.0 1737.2,561.0 1766.7,544.0" />
<polygon points="1855.0,561.0 1855.0,595.0 1825.6,612.0 1796.1,595.0 1796.1,561.0 1825.6,544.0" />
<polygon points="1913.9,561.0 1913.9,595.0 1884.5,612.0 1855.0,595.0 1855.0,561.0 1884.5,544.0" />
<polygon points="1972.8,561.0 1972.8,595.0 1943.4,612.0 1913.9,595.0 1913.9,561.0 1943.4,544.0" />
<polygon points="0.0,612.0 0.0,646.0 -29.4,663.0 -58.9,646.0 -58.9,612.0 -29.4,595.0" />
<polygon points="58.9,612.0 58.9,646.0 29.4,663.0 -0.0,646.0 0.0,612.0 29.4,595.0" />
<polygon points="117.8,612.0 117.8,646.0 88.3,663.0 58.9,646.0 58.9,612.0 88.3,595.0" />
<polygon points="176.7,612.0 176.7,646.0 147.2,663.0 117.8,646.0 117.8,612.0 147.2,595.0" />
<polygon points="235.6,612.0 235.6,646.0 206.1,663.0 176.7,646.0 176.7,612.0 206.1,595.0" />
<polygon points="294.4,612.0 294.4,646.0 265.0,663.0 235.6,646.0 235.6,612.0 265.0,595.0" />
<polygon points="353.3,612.0 353.3,646.0 323.9,663.0 294.4,646.0 294.4,612.0 323.9,595.0" />
<polygon points="412.2,612.0 412.2,646.0 382.8,663.0 353.3,646.0 353.3,612.0 382.8,595.0" />
<polygon points="471.1,612.0 471.1,646.0 441.7,663.0 412.2,646.0 412.2,612.0 441.7,595.0" />
<polygon points="530.0,612.0 530.0,646.0 500.6,663.0 471.1,646.0 471.1,612.0 500.6,595.0" />
<polygon points="588.9,612.0 588.9,646.0 559.5,663.0 530.0,646.0 530.0,612.0 559.5,595.0" />
<polygon points="647.8,612.0 647.8,646.0 618.3,663.0 588.9,646.0 588.9,612.0 618.3,595.0" />
<polygon points="706.7,612.0 706.7,646.0 677.2,663.0 647.8,646.0 647.8,612.0 677.2,595.0" />
<polygon points="765.6,612.0 765.6,646.0 736.1,663.0 706.7,646.0 706.7,612.0 736.1,595.0" />
<polygon points="824.5,612.0 824.5,646.0 795.0,663.0 765.6,646.0 765.6,612.0 795.0,595.0" />
<polygon points="883.3,612.0 883.3,646.0 853.9,663.0 824.5,646.0 824.5,612.0 853.9,595.0" />
<polygon points="942.2,612.0 942.2,646.0 912.8,663.0 883.3,646.0 883.3,612.0 912.8,595.0" />
<polygon points="1001.1,612.0 1001.1,646.0 971.7,663.0 942.2,646.0 942.2,612.0 971.7,595.0" />
<polygon points="1060.0,612.0 1060.0,646.0 1030.6,663.0 1001.1,646.0 1001.1,612.0 1030.6,595.0" />
<polygon points="1118.9,612.0 1118.9,646.0 1089.5,663.0 1060.0,646.0 1060.0,612.0 1089.5,595.0" />
<polygon points="1177.8,612.0 1177.8,646.0 1148.3,663.0 1118.9,646.0 1118.9,612.0 1148.3,595.0" />
<polygon points="1236.7,612.0 1236.7,646.0 1207.2,663.0 1177.8,646.0 1177.8,612.0 1207.2,595.0" />
<polygon points="1295.6,612.0 1295.6,646.0 1266.1,663.0 1236.7,646.0 1236.7,612.0 1266.1,595.0" />
<polygon points="1354.5,612.0 1354.5,646.0 1325.0,663.0 1295.6,646.0 1295.6,612.0 1325.0,595.0" />
<polygon points="1413.4,612.0 1413.4,646.0 1383.9,663.0 1354.5,646.0 1354.5,612.0 1383.9,595.0" />
<polygon points="1472.2,612.0 1472.2,646.0 1442.8,663.0 1413.4,646.0 1413.4,612.0 1442.8,595.0" />
<polygon points="1531.1,612.0 1531.1,646.0 1501.7,663.0 1472.2,646.0 1472.2,612.0 1501.7,595.0" />
<polygon points="1590.0,612.0 1590.0,646.0 1560.6,663.0 1531.1,646.0 1531.1,612.0 1560.6,595.0" />
<polygon points="1648.9,612.0 1648.9,646.0 1619.5,663.0 1590.0,646.0 1590.0,612.0 1619.5,595.0" />
<polygon points="1707.8,612.0 1707.8,646.0 1678.4,663.0 1648.9,646.0 1648.9,612.0 1678.4,595.0" />
<polygon points="1766.7,612.0 1766.7,646.0 1737.2,663.0 1707.8,646.0 1707.8,612.0 1737.2,595.0" />
<polygon points="1825.6,612.0 1825.6,646.0 1796.1,663.0 1766.7,646.0 1766.7,612.0 1796.1,595.0" />
<polygon points="1884.5,612.0 1884.5,646.0 1855.0,663.0 1825.6,646.0 1825.6,612.0 1855.0,595.0" />
<polygon points="1943.4,612.0 1943.4,646.0 1913.9,663.0 1884.5,646.0 1884.5,612.0 1913.9,595.0" />
<polygon points="2002.3,612.0 2002.3,646.0 1972.8,663.0 1943.4,646.0 1943.4,612.0 1972.8,595.0" />
<polygon points="-29.4,663.0 -29.4,697.0 -58.9,714.0 -88.3,697.0 -88.3,663.0 -58.9,646.0" />
<polygon points="29.4,663.0 29.4,697.0 0.0,714.0 -29.4,697.0 -29.4,663.0 -0.0,646.0" />
<polygon points="88.3,663.0 88.3,697.0 58.9,714.0 29.4,697.0 29.4,663.0 58.9,646.0" />
<polygon points="147.2,663.0 147.2,697.0 117.8,714.0 88.3,697.0 88.3,663.0 117.8,646.0" />
<polygon points="206.1,663.0 206.1,697.0 176.7,714.0 147.2,697.0 147.2,663.0 176.7,646.0" />
<polygon points="265.0,663.0 265.0,697.0 235.6,714.0 206.1,697.0 206.1,663.0 235.6,646.0" />
<polygon points="323.9,663.0 323.9,697.0 294.4,714.0 265.0,697.0 265.0,663.0 294.4,646.0" />
<polygon points="382.8,663.0 382.8,697.0 353.3,714.0 323.9,697.0 323.9,663.0 353.3,646.0" />
<polygon points="441.7,663.0 441.7,697.0 412.2,714.0 382.8,697.0 382.8,663.0 412.2,646.0" />
<polygon points="500.6,663.0 500.6,697.0 471.1,714.0 441.7,697.0 441.7,663.0 471.1,646.0" />
<polygon points="559.5,663.0 559.5,697.0 530.0,714.0 500.6,697.0 500.6,663.0 530.0,646.0" />
<polygon points="618.3,663.0 618.3,697.0 588.9,714.0 559.5,697.0 559.5,663.0 588.9,646.0" />
<polygon points="677.2,663.0 677.2,697.0 647.8,714.0 618.3,697.0 618.3,663.0 647.8,646.0" />
<polygon points="736.1,663.0 736.1,697.0 706.7,714.0 677.2,697.0 677.2,663.0 706.7,646.0" />
<polygon points="795.0,663.0 795.0,697.0 765.6,714.0 736.1,697.0 736.1,663.0 765.6,646.0" />
<polygon points="853.9,663.0 853.9,697.0 824.5,714.0 795.0,697.0 795.0,663.0 824.5,646.0" />
<polygon points="912.8,663.0 912.8,697.0 883.3,714.0 853.9,697.0 853.9,663.0 883.3,646.0" />
<polygon points="971.7,663.0 971.7,697.0 942.2,714.0 912.8,697.0 912.8,663.0 942.2,646.0" />
<polygon points="1030.6,663.0 1030.6,697.0 1001.1,714.0 971.7,697.0 971.7,663.0 1001.1,646.0" />
<polygon points="1089.5,663.0 1089.5,697.0 1060.0,714.0 1030.6,697.0 1030.6,663.0 1060.0,646.0" />
<polygon points="1148.3,663.0 1148.3,697.0 1118.9,714.0 1089.5,697.0 1089.5,663.0 1118.9,646.0" />
<polygon points="1207.2,663.0 1207.2,697.0 1177.8,714.0 1148.3,697.0 1148.3,663.0 1177.8,646.0" />
<polygon points="1266.1,663.0 1266.1,697.0 1236.7,714.0 1207.2,697.0 1207.2,663.0 1236.7,646.0" />
<polygon points="1325.0,663.0 1325.0,697.0 1295.6,714.0 1266.1,697.0 1266.1,663.0 1295.6,646.0" />
<polygon points="1383.9,663.0 1383.9,697.0 1354.5,714.0 1325.0,697.0 1325.0,663.0 1354.5,646.0" />
<polygon points="1442.8,663.0 1442.8,697.0 1413.4,714.0 1383.9,697.0 1383.9,663.0 1413.4,646.0" />
<polygon points="1501.7,663.0 1501.7,697.0 1472.2,714.0 1442.8,697.0 1442.8,663.0 1472.2,646.0" />
<polygon points="1560.6,663.0 1560.6,697.0 1531.1,714.0 1501.7,697.0 1501.7,663.0 1531.1,646.0" />
<polygon points="1619.5,663.0 1619.5,697.0 1590.0,714.0 1560.6,697.0 1560.6,663.0 1590.0,646.0" />
<polygon points="1678.4,663.0 1678.4,697.0 1648.9,714.0 1619.5,697.0 1619.5,663.0 1648.9,646.0" />
<polygon points="1737.2,663.0 1737.2,697.0 1707.8,714.0 1678.4,697.0 1678.4,663.0 1707.8,646.0" />
<polygon points="1796.1,663.0 1796.1,697.0 1766.7,714.0 1737.2,697.0 1737.2,663.0 1766.7,646.0" />
<polygon points="1855.0,663.0 1855.0,697.0 1825.6,714.0 1796.1,697.0 1796.1,663.0 1825.6,646.0" />
<polygon points="1913.9,663.0 1913.9,697.0 1884.5,714.0 1855.0,697.0 1855.0,663.0 1884.5,646.0" />
<polygon points="1972.8,663.0 1972.8,697.0 1943.4,714.0 1913.9,697.0 1913.9,663.0 1943.4,646.0" />
<polygon points="0.0,714.0 0.0,748.0 -29.4,765.0 -58.9,748.0 -58.9,714.0 -29.4,697.0" />
<polygon points="58.9,714.0 58.9,748.0 29.4,765.0 -0.0,748.0 0.0,714.0 29.4,697.0" />
<polygon points="117.8,714.0 117.8,748.0 88.3,765.0 58.9,748.0 58.9,714.0 88.3,697.0" />
<polygon points="176.7,714.0 176.7,748.0 147.2,765.0 117.8,748.0 117.8,714.0 147.2,697.0" />
<polygon points="235.6,714.0 235.6,748.0 206.1,765.0 176.7,748.0 176.7,714.0 206.1,697.0" />
<polygon points="294.4,714.0 294.4,748.0 265.0,765.0 235.6,748.0 235.6,714.0 265.0,697.0" />
<polygon points="353.3,714.0 353.3,748.0 323.9,765.0 294.4,748.0 294.4,714.0 323.9,697.0" />
<polygon points="412.2,714.0 412.2,748.0 382.8,765.0 353.3,748.0 353.3,714.0 382.8,697.0" />
<polygon points="471.1,714.0 471.1,748.0 441.7,765.0 412.2,748.0 412.2,714.0 441.7,697.0" />
<polygon points="530.0,714.0 530.0,748.0 500.6,765.0 471.1,748.0 471.1,714.0 500.6,697.0" />
<polygon points="588.9,714.0 588.9,748.0 559.5,765.0 530.0,748.0 530.0,714.0 559.5,697.0" />
<polygon points="647.8,714.0 647.8,748.0 618.3,765.0 588.9,748.0 588.9,714.0 618.3,697.0" />
<polygon points="706.7,714.0 706.7,748.0 677.2,765.0 647.8,748.0 647.8,714.0 677.2,697.0" />
<polygon points="765.6,714.0 765.6,748.0 736.1,765.0 706.7,748.0 706.7,714.0 736.1,697.0" />
<polygon points="824.5,714.0 824.5,748.0 795.0,765.0 765.6,748.0 765.6,714.0 795.0,697.0" />
<polygon points="883.3,714.0 883.3,748.0 853.9,765.0 824.5,748.0 824.5,714.0 853.9,697.0" />
<polygon points="942.2,714.0 942.2,748.0 912.8,765.0 883.3,748.0 883.3,714.0 912.8,697.0" />
<polygon points="1001.1,714.0 1001.1,748.0 971.7,765.0 942.2,748.0 942.2,714.0 971.7,697.0" />
<polygon points="1060.0,714.0 1060.0,748.0 1030.6,765.0 1001.1,748.0 1001.1,714.0 1030.6,697.0" />
<polygon points="1118.9,714.0 1118.9,748.0 1089.5,765.0 1060.0,748.0 1060.0,714.0 1089.5,697.0" />
<polygon points="1177.8,714.0 1177.8,748.0 1148.3,765.0 1118.9,748.0 1118.9,714.0 1148.3,697.0" />
<polygon points="1236.7,714.0 1236.7,748.0 1207.2,765.0 1177.8,748.0 1177.8,714.0 1207.2,697.0" />
<polygon points="1295.6,714.0 1295.6,748.0 1266.1,765.0 1236.7,748.0 1236.7,714.0 1266.1,697.0" />
<polygon points="1354.5,714.0 1354.5,748.0 1325.0,765.0 1295.6,748.0 1295.6,714.0 1325.0,697.0" />
<polygon points="1413.4,714.0 1413.4,748.0 1383.9,765.0 1354.5,748.0 1354.5,714.0 1383.9,697.0" />
<polygon points="1472.2,714.0 1472.2,748.0 1442.8,765.0 1413.4,748.0 1413.4,714.0 1442.8,697.0" />
<polygon points="1531.1,714.0 1531.1,748.0 1501.7,765.0 1472.2,748.0 1472.2,714.0 1501.7,697.0" />
<polygon points="1590.0,714.0 1590.0,748.0 1560.6,765.0 1531.1,748.0 1531.1,714.0 1560.6,697.0" />
<polygon points="1648.9,714.0 1648.9,748.0 1619.5,765.0 1590.0,748.0 1590.0,714.0 1619.5,697.0" />
<polygon points="1707.8,714.0 1707.8,748.0 1678.4,765.0 1648.9,748.0 1648.9,714.0 1678.4,697.0" />
<polygon points="1766.7,714.0 1766.7,748.0 1737.2,765.0 1707.8,748.0 1707.8,714.0 1737.2,697.0" />
<polygon points="1825.6,714.0 1825.6,748.0 1796.1,765.0 1766.7,748.0 1766.7,714.0 1796.1,697.0" />
<polygon points="1884.5,714.0 1884.5,748.0 1855.0,765.0 1825.6,748.0 1825.6,714.0 1855.0,697.0" />
<polygon points="1943.4,714.0 1943.4,748.0 1913.9,765.0 1884.5,748.0 1884.5,714.0 1913.9,697.0" />
<polygon points="2002.3,714.0 2002.3,748.0 1972.8,765.0 1943.4,748.0 1943.4,714.0 1972.8,697.0" />
<polygon points="-29.4,765.0 -29.4,799.0 -58.9,816.0 -88.3,799.0 -88.3,765.0 -58.9,748.0" />
<polygon points="29.4,765.0 29.4,799.0 0.0,816.0 -29.4,799.0 -29.4,765.0 -0.0,748.0" />
<polygon points="88.3,765.0 88.3,799.0 58.9,816.0 29.4,799.0 29.4,765.0 58.9,748.0" />
<polygon points="147.2,765.0 147.2,799.0 117.8,816.0 88.3,799.0 88.3,765.0 117.8,748.0" />
<polygon points="206.1,765.0 206.1,799.0 176.7,816.0 147.2,799.0 147.2,765.0 176.7,748.0" />
<polygon points="265.0,765.0 265.0,799.0 235.6,816.0 206.1,799.0 206.1,765.0 235.6,748.0" />
<polygon points="323.9,765.0 323.9,799.0 294.4,816.0 265.0,799.0 265.0,765.0 294.4,748.0" />
<polygon points="382.8,765.0 382.8,799.0 353.3,816.0 323.9,799.0 323.9,765.0 353.3,748.0" />
<polygon points="441.7,765.0 441.7,799.0 412.2,816.0 382.8,799.0 382.8,765.0 412.2,748.0" />
<polygon points="500.6,765.0 500.6,799.0 471.1,816.0 441.7,799.0 441.7,765.0 471.1,748.0" />
<polygon points="559.5,765.0 559.5,799.0 530.0,816.0 500.6,799.0 500.6,765.0 530.0,748.0" />
<polygon points="618.3,765.0 618.3,799.0 588.9,816.0 559.5,799.0 559.5,765.0 588.9,748.0" />
<polygon points="677.2,765.0 677.2,799.0 647.8,816.0 618.3,799.0 618.3,765.0 647.8,748.0" />
<polygon points="736.1,765.0 736.1,799.0 706.7,816.0 677.2,799.0 677.2,765.0 706.7,748.0" />
<polygon points="795.0,765.0 795.0,799.0 765.6,816.0 736.1,799.0 736.1,765.0 765.6,748.0" />
<polygon points="853.9,765.0 853.9,799.0 824.5,816.0 795.0,799.0 795.0,765.0 824.5,748.0" />
<polygon points="912.8,765.0 912.8,799.0 883.3,816.0 853.9,799.0 853.9,765.0 883.3,748.0" />
<polygon points="971.7,765.0 971.7,799.0 942.2,816.0 912.8,799.0 912.8,765.0 942.2,748.0" />
<polygon points="1030.6,765.0 1030.6,799.0 1001.1,816.0 971.7,799.0 971.7,765.0 1001.1,748.0" />
<polygon points="1089.5,765.0 1089.5,799.0 1060.0,816.0 1030.6,799.0 1030.6,765.0 1060.0,748.0" />
<polygon points="1148.3,765.0 1148.3,799.0 1118.9,816.0 1089.5,799.0 1089.5,765.0 1118.9,748.0" />
<polygon points="1207.2,765.0 1207.2,799.0 1177.8,816.0 1148.3,799.0 1148.3,765.0 1177.8,748.0" />
<polygon points="1266.1,765.0 1266.1,799.0 1236.7,816.0 1207.2,799.0 1207.2,765.0 1236.7,748.0" />
<polygon points="1325.0,765.0 1325.0,799.0 1295.6,816.0 1266.1,799.0 1266.1,765.0 1295.6,748.0" />
<polygon points="1383.9,765.0 1383.9,799.0 1354.5,816.0 1325.0,799.0 1325.0,765.0 1354.5,748.0" />
<polygon points="1442.8,765.0 1442.8,799.0 1413.4,816.0 1383.9,799.0 1383.9,765.0 1413.4,748.0" />
<polygon points="1501.7,765.0 1501.7,799.0 1472.2,816.0 1442.8,799.0 1442.8,765.0 1472.2,748.0" />
<polygon points="1560.6,765.0 1560.6,799.0 1531.1,816.0 1501.7,799.0 1501.7,765.0 1531.1,748.0" />
<polygon points="1619.5,765.0 1619.5,799.0 1590.0,816.0 1560.6,799.0 1560.6,765.0 1590.0,748.0" />
<polygon points="1678.4,765.0 1678.4,799.0 1648.9,816.0 1619.5,799.0 1619.5,765.0 1648.9,748.0" />
<polygon points="1737.2,765.0 1737.2,799.0 1707.8,816.0 1678.4,799.0 1678.4,765.0 1707.8,748.0" />
<polygon points="1796.1,765.0 1796.1,799.0 1766.7,816.0 1737.2,799.0 1737.2,765.0 1766.7,748.0" />
<polygon points="1855.0,765.0 1855.0,799.0 1825.6,816.0 1796.1,799.0 1796.1,765.0 1825.6,748.0" />
<polygon points="1913.9,765.0 1913.9,799.0 1884.5,816.0 1855.0,799.0 1855.0,765.0 1884.5,748.0" />
<polygon points="1972.8,765.0 1972.8,799.0 1943.4,816.0 1913.9,799.0 1913.9,765.0 1943.4,748.0" />
<polygon points="0.0,816.0 0.0,850.0 -29.4,867.0 -58.9,850.0 -58.9,816.0 -29.4,799.0" />
<polygon points="58.9,816.0 58.9,850.0 29.4,867.0 -0.0,850.0 0.0,816.0 29.4,799.0" />
<polygon points="117.8,816.0 117.8,850.0 88.3,867.0 58.9,850.0 58.9,816.0 88.3,799.0" />
<polygon points="176.7,816.0 176.7,850.0 147.2,867.0 117.8,850.0 117.8,816.0 147.2,799.0" />
<polygon points="235.6,816.0 235.6,850.0 206.1,867.0 176.7,850.0 176.7,816.0 206.1,799.0" />
<polygon points="294.4,816.0 294.4,850.0 265.0,867.0 235.6,850.0 235.6,816.0 265.0,799.0" />
<polygon points="353.3,816.0 353.3,850.0 323.9,867.0 294.4,850.0 294.4,816.0 323.9,799.0" />
<polygon points="412.2,816.0 412.2,850.0 382.8,867.0 353.3,850.0 353.3,816.0 382.8,799.0" />
<polygon points="471.1,816.0 471.1,850.0 441.7,867.0 412.2,850.0 412.2,816.0 441.7,799.0" />
<polygon points="530.0,816.0 530.0,850.0 500.6,867.0 471.1,850.0 471.1,816.0 500.6,799.0" />
<polygon points="588.9,816.0 588.9,850.0 559.5,867.0 530.0,850.0 530.0,816.0 559.5,799.0" />
<polygon points="647.8,816.0 647.8,850.0 618.3,867.0 588.9,850.0 588.9,816.0 618.3,799.0" />
<polygon points="706.7,816.0 706.7,850.0 677.2,867.0 647.8,850.0 647.8,816.0 677.2,799.0" />
<polygon points="765.6,816.0 765.6,850.0 736.1,867.0 706.7,850.0 706.7,816.0 736.1,799.0" />
<polygon points="824.5,816.0 824.5,850.0 795.0,867.0 765.6,850.0 765.6,816.0 795.0,799.0" />
<polygon points="883.3,816.0 883.3,850.0 853.9,867.0 824.5,850.0 824.5,816.0 853.9,799.0" />
<polygon points="942.2,816.0 942.2,850.0 912.8,867.0 883.3,850.0 883.3,816.0 912.8,799.0" />
<polygon points="1001.1,816.0 1001.1,850.0 971.7,867.0 942.2,850.0 942.2,816.0 971.7,799.0" />
<polygon points="1060.0,816.0 1060.0,850.0 1030.6,867.0 1001.1,850.0 1001.1,816.0 1030.6,799.0" />
<polygon points="1118.9,816.0 1118.9,850.0 1089.5,867.0 1060.0,850.0 1060.0,816.0 1089.5,799.0" />
<polygon points="1177.8,816.0 1177.8,850.0 1148.3,867.0 1118.9,850.0 1118.9,816.0 1148.3,799.0" />
<polygon points="1236.7,816.0 1236.7,850.0 1207.2,867.0 1177.8,850.0 1177.8,816.0 1207.2,799.0" />
<polygon points="1295.6,816.0 1295.6,850.0 1266.1,867.0 1236.7,850.0 1236.7,816.0 1266.1,799.0" />
<polygon points="1354.5,816.0 1354.5,850.0 1325.0,867.0 1295.6,850.0 1295.6,816.0 1325.0,799.0" />
<polygon points="1413.4,816.0 1413.4,850.0 1383.9,867.0 1354.5,850.0 1354.5,816.0 1383.9,799.0" />
<polygon points="1472.2,816.0 1472.2,850.0 1442.8,867.0 1413.4,850.0 1413.4,816.0 1442.8,799.0" />
<polygon points="1531.1,816.0 1531.1,850.0 1501.7,867.0 1472.2,850.0 1472.2,816.0 1501.7,799.0" />
<polygon points="1590.0,816.0 1590.0,850.0 1560.6,867.0 1531.1,850.0 1531.1,816.0 1560.6,799.0" />
<polygon points="1648.9,816.0 1648.9,850.0 1619.5,867.0 1590.0,850.0 1590.0,816.0 1619.5,799.0" />
<polygon points="1707.8,816.0 1707.8,850.0 1678.4,867.0 1648.9,850.0 1648.9,816.0 1678.4,799.0" />
<polygon points="1766.7,816.0 1766.7,850.0 1737.2,867.0 1707.8,850.0 1707.8,816.0 1737.2,799.0" />
<polygon points="1825.6,816.0 1825.6,850.0 1796.1,867.0 1766.7,850.0 1766.7,816.0 1796.1,799.0" />
<polygon points="1884.5,816.0 1884.5,850.0 1855.0,867.0 1825.6,850.0 1825.6,816.0 1855.0,799.0" />
<polygon points="1943.4,816.0 1943.4,850.0 1913.9,867.0 1884.5,850.0 1884.5,816.0 1913.9,799.0" />
<polygon points="2002.3,816.0 2002.3,850.0 1972.8,867.0 1943.4,850.0 1943.4,816.0 1972.8,799.0" />
<polygon points="-29.4,867.0 -29.4,901.0 -58.9,918.0 -88.3,901.0 -88.3,867.0 -58.9,850.0" />
<polygon points="29.4,867.0 29.4,901.0 0.0,918.0 -29.4,901.0 -29.4,867.0 -0.0,850.0" />
<polygon points="88.3,867.0 88.3,901.0 58.9,918.0 29.4,901.0 29.4,867.0 58.9,850.0" />
<polygon points="147.2,867.0 147.2,901.0 117.8,918.0 88.3,901.0 88.3,867.0 117.8,850.0" />
<polygon points="206.1,867.0 206.1,901.0 176.7,918.0 147.2,901.0 147.2,867.0 176.7,850.0" />
<polygon points="265.0,867.0 265.0,901.0 235.6,918.0 206.1,901.0 206.1,867.0 235.6,850.0" />
<polygon points="323.9,867.0 323.9,901.0 294.4,918.0 265.0,901.0 265.0,867.0 294.4,850.0" />
<polygon points="382.8,867.0 382.8,901.0 353.3,918.0 323.9,901.0 323.9,867.0 353.3,850.0" />
<polygon points="441.7,867.0 441.7,901.0 412.2,918.0 382.8,901.0 382.8,867.0 412.2,850.0" />
<polygon points="500.6,867.0 500.6,901.0 471.1,918.0 441.7,901.0 441.7,867.0 471.1,850.0" />
<polygon points="559.5,867.0 559.5,901.0 530.0,918.0 500.6,901.0 500.6,867.0 530.0,850.0" />
<polygon points="618.3,867.0 618.3,901.0 588.9,918.0 559.5,901.0 559.5,867.0 588.9,850.0" />
<polygon points="677.2,867.0 677.2,901.0 647.8,918.0 618.3,901.0 618.3,867.0 647.8,850.0" />
<polygon points="736.1,867.0 736.1,901.0 706.7,918.0 677.2,901.0 677.2,867.0 706.7,850.0" />
<polygon points="795.0,867.0 795.0,901.0 765.6,918.0 736.1,901.0 736.1,867.0 765.6,850.0" />
<polygon points="853.9,867.0 853.9,901.0 824.5,918.0 795.0,901.0 795.0,867.0 824.5,850.0" />
<polygon points="912.8,867.0 912.8,901.0 883.3,918.0 853.9,901.0 853.9,867.0 883.3,850.0" />
<polygon points="971.7,867.0 971.7,901.0 942.2,918.0 912.8,901.0 912.8,867.0 942.2,850.0" />
<polygon points="1030.6,867.0 1030.6,901.0 1001.1,918.0 971.7,901.0 971.7,867.0 1001.1,850.0" />
<polygon points="1089.5,867.0 1089.5,901.0 1060.0,918.0 1030.6,901.0 1030.6,867.0 1060.0,850.0" />
<polygon points="1148.3,867.0 1148.3,901.0 1118.9,918.0 1089.5,901.0 1089.5,867.0 1118.9,850.0" />
<polygon points="1207.2,867.0 1207.2,901.0 1177.8,918.0 1148.3,901.0 1148.3,867.0 1177.8,850.0" />
<polygon points="1266.1,867.0 1266.1,901.0 1236.7,918.0 1207.2,901.0 1207.2,867.0 1236.7,850.0" />
<polygon points="1325.0,867.0 1325.0,901.0 1295.6,918.0 1266.1,901.0 1266.1,867.0 1295.6,850.0" />
<polygon points="1383.9,867.0 1383.9,901.0 1354.5,918.0 1325.0,901.0 1325.0,867.0 1354.5,850.0" />
<polygon points="1442.8,867.0 1442.8,901.0 1413.4,918.0 1383.9,901.0 1383.9,867.0 1413.4,850.0" />
<polygon points="1501.7,867.0 1501.7,901.0 1472.2,918.0 1442.8,901.0 1442.8,867.0 1472.2,850.0" />
<polygon points="1560.6,867.0 1560.6,901.0 1531.1,918.0 1501.7,901.0 1501.7,867.0 1531.1,850.0" />
<polygon points="1619.5,867.0 1619.5,901.0 1590.0,918.0 1560.6,901.0 1560.6,867.0 1590.0,850.0" />
<polygon points="1678.4,867.0 1678.4,901.0 1648.9,918.0 1619.5,901.0 1619.5,867.0 1648.9,850.0" />
<polygon points="1737.2,867.0 1737.2,901.0 1707.8,918.0 1678.4,901.0 1678.4,867.0 1707.8,850.0" />
<polygon points="1796.1,867.0 1796.1,901.0 1766.7,918.0 1737.2,901.0 1737.2,867.0 1766.7,850.0" />
<polygon points="1855.0,867.0 1855.0,901.0 1825.6,918.0 1796.1,901.0 1796.1,867.0 1825.6,850.0" />
<polygon points="1913.9,867.0 1913.9,901.0 1884.5,918.0 1855.0,901.0 1855.0,867.0 1884.5,850.0" />
<polygon points="1972.8,867.0 1972.8,901.0 1943.4,918.0 1913.9,901.0 1913.9,867.0 1943.4,850.0" />
<polygon points="0.0,918.0 0.0,952.0 -29.4,969.0 -58.9,952.0 -58.9,918.0 -29.4,901.0" />
<polygon points="58.9,918.0 58.9,952.0 29.4,969.0 -0.0,952.0 0.0,918.0 29.4,901.0" />
<polygon points="117.8,918.0 117.8,952.0 88.3,969.0 58.9,952.0 58.9,918.0 88.3,901.0" />
<polygon points="176.7,918.0 176.7,952.0 147.2,969.0 117.8,952.0 117.8,918.0 147.2,901.0" />
<polygon points="235.6,918.0 235.6,952.0 206.1,969.0 176.7,952.0 176.7,918.0 206.1,901.0" />
<polygon points="294.4,918.0 294.4,952.0 265.0,969.0 235.6,952.0 235.6,918.0 265.0,901.0" />
<polygon points="353.3,918.0 353.3,952.0 323.9,969.0 294.4,952.0 294.4,918.0 323.9,901.0" />
<polygon points="412.2,918.0 412.2,952.0 382.8,969.0 353.3,952.0 353.3,918.0 382.8,901.0" />
<polygon points="471.1,918.0 471.1,952.0 441.7,969.0 412.2,952.0 412.2,918.0 441.7,901.0" />
<polygon points="530.0,918.0 530.0,952.0 500.6,969.0 471.1,952.0 471.1,918.0 500.6,901.0" />
<polygon points="588.9,918.0 588.9,952.0 559.5,969.0 530.0,952.0 530.0,918.0 559.5,901.0" />
<polygon points="647.8,918.0 647.8,952.0 618.3,969.0 588.9,952.0 588.9,918.0 618.3,901.0" />
<polygon points="706.7,918.0 706.7,952.0 677.2,969.0 647.8,952.0 647.8,918.0 677.2,901.0" />
<polygon points="765.6,918.0 765.6,952.0 736.1,969.0 706.7,952.0 706.7,918.0 736.1,901.0" />
<polygon points="824.5,918.0 824.5,952.0 795.0,969.0 765.6,952.0 765.6,918.0 795.0,901.0" />
<polygon points="883.3,918.0 883.3,952.0 853.9,969.0 824.5,952.0 824.5,918.0 853.9,901.0" />
<polygon points="942.2,918.0 942.2,952.0 912.8,969.0 883.3,952.0 883.3,918.0 912.8,901.0" />
<polygon points="1001.1,918.0 1001.1,952.0 971.7,969.0 942.2,952.0 942.2,918.0 971.7,901.0" />
<polygon points="1060.0,918.0 1060.0,952.0 1030.6,969.0 1001.1,952.0 1001.1,918.0 1030.6,901.0" />
<polygon points="1118.9,918.0 1118.9,952.0 1089.5,969.0 1060.0,952.0 1060.0,918.0 1089.5,901.0" />
<polygon points="1177.8,918.0 1177.8,952.0 1148.3,969.0 1118.9,952.0 1118.9,918.0 1148.3,901.0" />
<polygon points="1236.7,918.0 1236.7,952.0 1207.2,969.0 1177.8,952.0 1177.8,918.0 1207.2,901.0" />
<polygon points="1295.6,918.0 1295.6,952.0 1266.1,969.0 1236.7,952.0 1236.7,918.0 1266.1,901.0" />
<polygon points="1354.5,918.0 1354.5,952.0 1325.0,969.0 1295.6,952.0 1295.6,918.0 1325.0,901.0" />
<polygon points="1413.4,918.0 1413.4,952.0 1383.9,969.0 1354.5,952.0 1354.5,918.0 1383.9,901.0" />
<polygon points="1472.2,918.0 1472.2,952.0 1442.8,969.0 1413.4,952.0 1413.4,918.0 1442.8,901.0" />
<polygon points="1531.1,918.0 1531.1,952.0 1501.7,969.0 1472.2,952.0 1472.2,918.0 1501.7,901.0" />
<polygon points="1590.0,918.0 1590.0,952.0 1560.6,969.0 1531.1,952.0 1531.1,918.0 1560.6,901.0" />
<polygon points="1648.9,918.0 1648.9,952.0 1619.5,969.0 1590.0,952.0 1590.0,918.0 1619.5,901.0" />
<polygon points="1707.8,918.0 1707.8,952.0 1678.4,969.0 1648.9,952.0 1648.9,918.0 1678.4,901.0" />
<polygon points="1766.7,918.0 1766.7,952.0 1737.2,969.0 1707.8,952.0 1707.8,918.0 1737.2,901.0" />
<polygon points="1825.6,918.0 1825.6,952.0 1796.1,969.0 1766.7,952.0 1766.7,918.0 1796.1,901.0" />
<polygon points="1884.5,918.0 1884.5,952.0 1855.0,969.0 1825.6,952.0 1825.6,918.0 1855.0,901.0" />
<polygon points="1943.4,918.0 1943.4,952.0 1913.9,969.0 1884.5,952.0 1884.5,918.0 1913.9,901.0" />
<polygon points="2002.3,918.0 2002.3,952.0 1972.8,969.0 1943.4,952.0 1943.4,918.0 1972.8,901.0" />
<polygon points="-29.4,969.0 -29.4,1003.0 -58.9,1020.0 -88.3,1003.0 -88.3,969.0 -58.9,952.0" />
<polygon points="29.4,969.0 29.4,1003.0 0.0,1020.0 -29.4,1003.0 -29.4,969.0 -0.0,952.0" />
<polygon points="88.3,969.0 88.3,1003.0 58.9,1020.0 29.4,1003.0 29.4,969.0 58.9,952.0" />
<polygon points="147.2,969.0 147.2,1003.0 117.8,1020.0 88.3,1003.0 88.3,969.0 117.8,952.0" />
<polygon points="206.1,969.0 206.1,1003.0 176.7,1020.0 147.2,1003.0 147.2,969.0 176.7,952.0" />
<polygon points="265.0,969.0 265.0,1003.0 235.6,1020.0 206.1,1003.0 206.1,969.0 235.6,952.0" />
<polygon points="323.9,969.0 323.9,1003.0 294.4,1020.0 265.0,1003.0 265.0,969.0 294.4,952.0" />
<polygon points="382.8,969.0 382.8,1003.0 353.3,1020.0 323.9,1003.0 323.9,969.0 353.3,952.0" />
<polygon points="441.7,969.0 441.7,1003.0 412.2,1020.0 382.8,1003.0 382.8,969.0 412.2,952.0" />
<polygon points="500.6,969.0 500.6,1003.0 471.1,1020.0 441.7,1003.0 441.7,969.0 471.1,952.0" />
<polygon points="559.5,969.0 559.5,1003.0 530.0,1020.0 500.6,1003.0 500.6,969.0 530.0,952.0" />
<polygon points="618.3,969.0 618.3,1003.0 588.9,1020.0 559.5,1003.0 559.5,969.0 588.9,952.0" />
<polygon points="677.2,969.0 677.2,1003.0 647.8,1020.0 618.3,1003.0 618.3,969.0 647.8,952.0" />
<polygon points="736.1,969.0 736.1,1003.0 706.7,1020.0 677.2,1003.0 677.2,969.0 706.7,952.0" />
<polygon points="795.0,969.0 795.0,1003.0 765.6,1020.0 736.1,1003.0 736.1,969.0 765.6,952.0" />
<polygon points="853.9,969.0 853.9,1003.0 824.5,1020.0 795.0,1003.0 795.0,969.0 824.5,952.0" />
<polygon points="912.8,969.0 912.8,1003.0 883.3,1020.0 853.9,1003.0 853.9,969.0 883.3,952.0" />
<polygon points="971.7,969.0 971.7,1003.0 942.2,1020.0 912.8,1003.0 912.8,969.0 942.2,952.0" />
<polygon points="1030.6,969.0 1030.6,1003.0 1001.1,1020.0 971.7,1003.0 971.7,969.0 1001.1,952.0" />
<polygon points="1089.5,969.0 1089.5,1003.0 1060.0,1020.0 1030.6,1003.0 1030.6,969.0 1060.0,952.0" />
<polygon points="1148.3,969.0 1148.3,1003.0 1118.9,1020.0 1089.5,1003.0 1089.5,969.0 1118.9,952.0" />
<polygon points="1207.2,969.0 1207.2,1003.0 1177.8,1020.0 1148.3,1003.0 1148.3,969.0 1177.8,952.0" />
<polygon points="1266.1,969.0 1266.1,1003.0 1236.7,1020.0 1207.2,1003.0 1207.2,969.0 1236.7,952.0" />
<polygon points="1325.0,969.0 1325.0,1003.0 1295.6,1020.0 1266.1,1003.0 1266.1,969.0 1295.6,952.0" />
<polygon points="1383.9,969.0 1383.9,1003.0 1354.5,1020.0 1325.0,1003.0 1325.0,969.0 1354.5,952.0" />
<polygon points="1442.8,969.0 1442.8,1003.0 1413.4,1020.0 1383.9,1003.0 1383.9,969.0 1413.4,952.0" />
<polygon points="1501.7,969.0 1501.7,1003.0 1472.2,1020.0 1442.8,1003.0 1442.8,969.0 1472.2,952.0" />
<polygon points="1560.6,969.0 1560.6,1003.0 1531.1,1020.0 1501.7,1003.0 1501.7,969.0 1531.1,952.0" />
<polygon points="1619.5,969.0 1619.5,1003.0 1590.0,1020.0 1560.6,1003.0 1560.6,969.0 1590.0,952.0" />
<polygon points="1678.4,969.0 1678.4,1003.0 1648.9,1020.0 1619.5,1003.0 1619.5,969.0 1648.9,952.0" />
<polygon points="1737.2,969.0 1737.2,1003.0 1707.8,1020.0 1678.4,1003.0 1678.4,969.0 1707.8,952.0" />
<polygon points="1796.1,969.0 1796.1,1003.0 1766.7,1020.0 1737.2,1003.0 1737.2,969.0 1766.7,952.0" />
<polygon points="1855.0,969.0 1855.0,1003.0 1825.6,1020.0 1796.1,1003.0 1796.1,969.0 1825.6,952.0" />
<polygon points="1913.9,969.0 1913.9,1003.0 1884.5,1020.0 1855.0,1003.0 1855.0,969.0 1884.5,952.0" />
<polygon points="1972.8,969.0 1972.8,1003.0 1943.4,1020.0 1913.9,1003.0 1913.9,969.0 1943.4,952.0" />
<polygon points="0.0,1020.0 0.0,1054.0 -29.4,1071.0 -58.9,1054.0 -58.9,1020.0 -29.4,1003.0" />
<polygon points="58.9,1020.0 58.9,1054.0 29.4,1071.0 -0.0,1054.0 0.0,1020.0 29.4,1003.0" />
<polygon points="117.8,1020.0 117.8,1054.0 88.3,1071.0 58.9,1054.0 58.9,1020.0 88.3,1003.0" />
<polygon points="176.7,1020.0 176.7,1054.0 147.2,1071.0 117.8,1054.0 117.8,1020.0 147.2,1003.0" />
<polygon points="235.6,1020.0 235.6,1054.0 206.1,1071.0 176.7,1054.0 176.7,1020.0 206.1,1003.0" />
<polygon points="294.4,1020.0 294.4,1054.0 265.0,1071.0 235.6,1054.0 235.6,1020.0 265.0,1003.0" />
<polygon points="353.3,1020.0 353.3,1054.0 323.9,1071.0 294.4,1054.0 294.4,1020.0 323.9,1003.0" />
<polygon points="412.2,1020.0 412.2,1054.0 382.8,1071.0 353.3,1054.0 353.3,1020.0 382.8,1003.0" />
<polygon points="471.1,1020.0 471.1,1054.0 441.7,1071.0 412.2,1054.0 412.2,1020.0 441.7,1003.0" />
<polygon points="530.0,1020.0 530.0,1054.0 500.6,1071.0 471.1,1054.0 471.1,1020.0 500.6,1003.0" />
<polygon points="588.9,1020.0 588.9,1054.0 559.5,1071.0 530.0,1054.0 530.0,1020.0 559.5,1003.0" />
<polygon points="647.8,1020.0 647.8,1054.0 618.3,1071.0 588.9,1054.0 588.9,1020.0 618.3,1003.0" />
<polygon points="706.7,1020.0 706.7,1054.0 677.2,1071.0 647.8,1054.0 647.8,1020.0 677.2,1003.0" />
<polygon points="765.6,1020.0 765.6,1054.0 736.1,1071.0 706.7,1054.0 706.7,1020.0 736.1,1003.0" />
<polygon points="824.5,1020.0 824.5,1054.0 795.0,1071.0 765.6,1054.0 765.6,1020.0 795.0,1003.0" />
<polygon points="883.3,1020.0 883.3,1054.0 853.9,1071.0 824.5,1054.0 824.5,1020.0 853.9,1003.0" />
<polygon points="942.2,1020.0 942.2,1054.0 912.8,1071.0 883.3,1054.0 883.3,1020.0 912.8,1003.0" />
<polygon points="1001.1,1020.0 1001.1,1054.0 971.7,1071.0 942.2,1054.0 942.2,1020.0 971.7,1003.0" />
<polygon points="1060.0,1020.0 1060.0,1054.0 1030.6,1071.0 1001.1,1054.0 1001.1,1020.0 1030.6,1003.0" />
<polygon points="1118.9,1020.0 1118.9,1054.0 1089.5,1071.0 1060.0,1054.0 1060.0,1020.0 1089.5,1003.0" />
<polygon points="1177.8,1020.0 1177.8,1054.0 1148.3,1071.0 1118.9,1054.0 1118.9,1020.0 1148.3,1003.0" />
<polygon points="1236.7,1020.0 1236.7,1054.0 1207.2,1071.0 1177.8,1054.0 1177.8,1020.0 1207.2,1003.0" />
<polygon points="1295.6,1020.0 1295.6,1054.0 1266.1,1071.0 1236.7,1054.0 1236.7,1020.0 1266.1,1003.0" />
<polygon points="1354.5,1020.0 1354.5,1054.0 1325.0,1071.0 1295.6,1054.0 1295.6,1020.0 1325.0,1003.0" />
<polygon points="1413.4,1020.0 1413.4,1054.0 1383.9,1071.0 1354.5,1054.0 1354.5,1020.0 1383.9,1003.0" />
<polygon points="1472.2,1020.0 1472.2,1054.0 1442.8,1071.0 1413.4,1054.0 1413.4,1020.0 1442.8,1003.0" />
<polygon points="1531.1,1020.0 1531.1,1054.0 1501.7,1071.0 1472.2,1054.0 1472.2,1020.0 1501.7,1003.0" />
<polygon points="1590.0,1020.0 1590.0,1054.0 1560.6,1071.0 1531.1,1054.0 1531.1,1020.0 1560.6,1003.0" />
<polygon points="1648.9,1020.0 1648.9,1054.0 1619.5,1071.0 1590.0,1054.0 1590.0,1020.0 1619.5,1003.0" />
<polygon points="1707.8,1020.0 1707.8,1054.0 1678.4,1071.0 1648.9,1054.0 1648.9,1020.0 1678.4,1003.0" />
<polygon points="1766.7,1020.0 1766.7,1054.0 1737.2,1071.0 1707.8,1054.0 1707.8,1020.0 1737.2,1003.0" />
<polygon points="1825.6,1020.0 1825.6,1054.0 1796.1,1071.0 1766.7,1054.0 1766.7,1020.0 1796.1,1003.0" />
<polygon points="1884.5,1020.0 1884.5,1054.0 1855.0,1071.0 1825.6,1054.0 1825.6,1020.0 1855.0,1003.0" />
<polygon points="1943.4,1020.0 1943.4,1054.0 1913.9,1071.0 1884.5,1054.0 1884.5,1020.0 1913.9,1003.0" />
<polygon points="2002.3,1020.0 2002.3,1054.0 1972.8,1071.0 1943.4,1054.0 1943.4,1020.0 1972.8,1003.0" />
<polygon points="-29.4,1071.0 -29.4,1105.0 -58.9,1122.0 -88.3,1105.0 -88.3,1071.0 -58.9,1054.0" />
<polygon points="29.4,1071.0 29.4,1105.0 0.0,1122.0 -29.4,1105.0 -29.4,1071.0 -0.0,1054.0" />
<polygon points="88.3,1071.0 88.3,1105.0 58.9,1122.0 29.4,1105.0 29.4,1071.0 58.9,1054.0" />
<polygon points="147.2,1071.0 147.2,1105.0 117.8,1122.0 88.3,1105.0 88.3,1071.0 117.8,1054.0" />
<polygon points="206.1,1071.0 206.1,1105.0 176.7,1122.0 147.2,1105.0 147.2,1071.0 176.7,1054.0" />
<polygon points="265.0,1071.0 265.0,1105.0 235.6,1122.0 206.1,1105.0 206.1,1071.0 235.6,1054.0" />
<polygon points="323.9,1071.0 323.9,1105.0 294.4,1122.0 265.0,1105.0 265.0,1071.0 294.4,1054.0" />
<polygon points="382.8,1071.0 382.8,1105.0 353.3,1122.0 323.9,1105.0 323.9,1071.0 353.3,1054.0" />
<polygon points="441.7,1071.0 441.7,1105.0 412.2,1122.0 382.8,1105.0 382.8,1071.0 412.2,1054.0" />
<polygon points="500.6,1071.0 500.6,1105.0 471.1,1122.0 441.7,1105.0 441.7,1071.0 471.1,1054.0" />
<polygon points="559.5,1071.0 559.5,1105.0 530.0,1122.0 500.6,1105.0 500.6,1071.0 530.0,1054.0" />
<polygon points="618.3,1071.0 618.3,1105.0 588.9,1122.0 559.5,1105.0 559.5,1071.0 588.9,1054.0" />
<polygon points="677.2,1071.0 677.2,1105.0 647.8,1122.0 618.3,1105.0 618.3,1071.0 647.8,1054.0" />
<polygon points="736.1,1071.0 736.1,1105.0 706.7,1122.0 677.2,1105.0 677.2,1071.0 706.7,1054.0" />
<polygon points="795.0,1071.0 795.0,1105.0 765.6,1122.0 736.1,1105.0 736.1,1071.0 765.6,1054.0" />
<polygon points="853.9,1071.0 853.9,1105.0 824.5,1122.0 795.0,1105.0 795.0,1071.0 824.5,1054.0" />
<polygon points="912.8,1071.0 912.8,1105.0 883.3,1122.0 853.9,1105.0 853.9,1071.0 883.3,1054.0" />
<polygon points="971.7,1071.0 971.7,1105.0 942.2,1122.0 912.8,1105.0 912.8,1071.0 942.2,1054.0" />
<polygon points="1030.6,1071.0 1030.6,1105.0 1001.1,1122.0 971.7,1105.0 971.7,1071.0 1001.1,1054.0" />
<polygon points="1089.5,1071.0 1089.5,1105.0 1060.0,1122.0 1030.6,1105.0 1030.6,1071.0 1060.0,1054.0" />
<polygon points="1148.3,1071.0 1148.3,1105.0 1118.9,1122.0 1089.5,1105.0 1089.5,1071.0 1118.9,1054.0" />
<polygon points="1207.2,1071.0 1207.2,1105.0 1177.8,1122.0 1148.3,1105.0 1148.3,1071.0 1177.8,1054.0" />
<polygon points="1266.1,1071.0 1266.1,1105.0 1236.7,1122.0 1207.2,1105.0 1207.2,1071.0 1236.7,1054.0" />
<polygon points="1325.0,1071.0 1325.0,1105.0 1295.6,1122.0 1266.1,1105.0 1266.1,1071.0 1295.6,1054.0" />
<polygon points="1383.9,1071.0 1383.9,1105.0 1354.5,1122.0 1325.0,1105.0 1325.0,1071.0 1354.5,1054.0" />
<polygon points="1442.8,1071.0 1442.8,1105.0 1413.4,1122.0 1383.9,1105.0 1383.9,1071.0 1413.4,1054.0" />
<polygon points="1501.7,1071.0 1501.7,1105.0 1472.2,1122.0 1442.8,1105.0 1442.8,1071.0 1472.2,1054.0" />
<polygon points="1560.6,1071.0 1560.6,1105.0 1531.1,1122.0 1501.7,1105.0 1501.7,1071.0 1531.1,1054.0" />
<polygon points="1619.5,1071.0 1619.5,1105.0 1590.0,1122.0 1560.6,1105.0 1560.6,1071.0 1590.0,1054.0" />
<polygon points="1678.4,1071.0 1678.4,1105.0 1648.9,1122.0 1619.5,1105.0 1619.5,1071.0 1648.9,1054.0" />
<polygon points="1737.2,1071.0 1737.2,1105.0 1707.8,1122.0 1678.4,1105.0 1678.4,1071.0 1707.8,1054.0" />
<polygon points="1796.1,1071.0 1796.1,1105.0 1766.7,1122.0 1737.2,1105.0 1737.2,1071.0 1766.7,1054.0" />
<polygon points="1855.0,1071.0 1855.0,1105.0 1825.6,1122.0 1796.1,1105.0 1796.1,1071.0 1825.6,1054.0" />
<polygon points="1913.9,1071.0 1913.9,1105.0 1884.5,1122.0 1855.0,1105.0 1855.0,1071.0 1884.5,1054.0" />
<polygon points="1972.8,1071.0 1972.8,1105.0 1943.4,1122.0 1913.9,1105.0 1913.9,1071.0 1943.4,1054.0" />
  </g>

  <!-- teal spotlight behind monogram -->
  <rect width="1920" height="1080" fill="url(#spotlight)"/>

  <!-- monogram -->
  <g transform="translate(960 475)">
    <path d="M0 -170 L147 -85 L147 85 L0 170 L-147 85 L-147 -85 Z"
          fill="url(#sFill)" stroke="#00E0A4" stroke-width="2.2"/>
    <path d="M0 -170 L147 -85 L147 85 L0 170 L-147 85 L-147 -85 Z"
          fill="none" stroke="#00E0A4" stroke-width="0.6" opacity="0.35"
          transform="scale(1.06)"/>
    <text x="0" y="48" text-anchor="middle"
          font-family="Helvetica, Arial, sans-serif"
          font-size="230" font-weight="700"
          fill="#E6EDF3">S</text>
  </g>

  <!-- wordmark: rendered as individual tspans with manual spacing so it stays centered -->
  <text x="960" y="735" text-anchor="middle"
        font-family="Helvetica, Arial, sans-serif"
        font-size="58" font-weight="600"
        fill="#E6EDF3" letter-spacing="12">SHADOWOS</text>

  <text x="960" y="780" text-anchor="middle"
        font-family="Helvetica, Arial, sans-serif"
        font-size="15" font-weight="400"
        fill="#6B7785" letter-spacing="6">PRIVACY  ·  ISOLATED  ·  AMNESIC</text>

  <!-- bottom-left mark -->
  <g transform="translate(80 990)">
    <rect width="50" height="2" fill="#00E0A4"/>
    <text x="64" y="3" font-family="Helvetica, Arial, sans-serif"
          font-size="12" fill="#5A6470" letter-spacing="3">SHADOWCYPHER / v0.1</text>
  </g>

  <!-- top-right meta -->
  <text x="1840" y="62" text-anchor="end"
        font-family="Helvetica, Arial, sans-serif"
        font-size="11" fill="#3D4651" letter-spacing="3">SECURE  SHELL  ·  ZERO  TRACE</text>

  <!-- corner brackets -->
  <g stroke="#1F2A36" stroke-width="1.2" fill="none">
    <path d="M40 40 L40 80 M40 40 L80 40"/>
    <path d="M1880 40 L1880 80 M1880 40 L1840 40"/>
    <path d="M40 1040 L40 1000 M40 1040 L80 1040"/>
    <path d="M1880 1040 L1880 1000 M1880 1040 L1840 1040"/>
  </g>
</svg>
