<svg xmlns="http://www.w3.org/2000/svg" viewBox="0 0 256 256" width="256" height="256">
  <defs>
    <linearGradient id="bg" x1="0%" y1="0%" x2="100%" y2="100%">
      <stop offset="0%" style="stop-color:#0a0a12"/>
      <stop offset="100%" style="stop-color:#020206"/>
    </linearGradient>
    <linearGradient id="glow" x1="0%" y1="0%" x2="100%" y2="100%">
      <stop offset="0%" style="stop-color:#00d4ff"/>
      <stop offset="100%" style="stop-color:#a855f7"/>
    </linearGradient>
    <linearGradient id="ring" x1="0%" y1="0%" x2="100%" y2="100%">
      <stop offset="0%" style="stop-color:#00d4ff;stop-opacity:0.9"/>
      <stop offset="50%" style="stop-color:#a855f7;stop-opacity:0.7"/>
      <stop offset="100%" style="stop-color:#00d4ff;stop-opacity:0.9"/>
    </linearGradient>
    <filter id="shadow">
      <feDropShadow dx="0" dy="2" stdDeviation="4" flood-color="#00d4ff" flood-opacity="0.4"/>
    </filter>
    <filter id="innerGlow">
      <feGaussianBlur in="SourceGraphic" stdDeviation="3" result="blur"/>
      <feComposite in="SourceGraphic" in2="blur" operator="over"/>
    </filter>
  </defs>
  <rect x="8" y="8" width="240" height="240" rx="48" ry="48" fill="url(#bg)" stroke="url(#ring)" stroke-width="2.5"/>
  <circle cx="128" cy="120" r="72" fill="none" stroke="url(#glow)" stroke-width="2" stroke-dasharray="8 4" opacity="0.5"/>
  <path d="M128 52 L178 78 L178 130 L128 156 L78 130 L78 78 Z" fill="none" stroke="url(#glow)" stroke-width="2.5" stroke-linejoin="round" filter="url(#shadow)" opacity="0.85"/>
  <g filter="url(#innerGlow)">
    <path d="M128 72 C104 72 88 88 88 108 C88 120 92 128 100 134 L100 140 L156 140 L156 134 C164 128 168 120 168 108 C168 88 152 72 128 72Z" fill="none" stroke="#00d4ff" stroke-width="2.5" stroke-linejoin="round"/>
    <path d="M107 100 L107 116 L119 116 L119 100 Z" fill="#00d4ff" opacity="0.85"/>
    <path d="M137 100 L137 116 L149 116 L149 100 Z" fill="#a855f7" opacity="0.85"/>
    <path d="M124 120 L128 126 L132 120" fill="none" stroke="#00d4ff" stroke-width="1.5" opacity="0.6"/>
    <line x1="108" y1="140" x2="108" y2="150" stroke="#00d4ff" stroke-width="2" opacity="0.7"/>
    <line x1="118" y1="140" x2="118" y2="152" stroke="#00d4ff" stroke-width="2" opacity="0.8"/>
    <line x1="128" y1="140" x2="128" y2="152" stroke="#a855f7" stroke-width="2" opacity="0.8"/>
    <line x1="138" y1="140" x2="138" y2="152" stroke="#a855f7" stroke-width="2" opacity="0.8"/>
    <line x1="148" y1="140" x2="148" y2="150" stroke="#a855f7" stroke-width="2" opacity="0.7"/>
  </g>
  <path d="M70 80 C60 90 56 104 56 116" fill="none" stroke="#00d4ff" stroke-width="1.5" opacity="0.4" stroke-linecap="round"/>
  <path d="M60 72 C46 86 40 106 40 124" fill="none" stroke="#00d4ff" stroke-width="1.5" opacity="0.25" stroke-linecap="round"/>
  <path d="M186 80 C196 90 200 104 200 116" fill="none" stroke="#a855f7" stroke-width="1.5" opacity="0.4" stroke-linecap="round"/>
  <path d="M196 72 C210 86 216 106 216 124" fill="none" stroke="#a855f7" stroke-width="1.5" opacity="0.25" stroke-linecap="round"/>
  <circle cx="88" cy="180" r="4" fill="#00d4ff" opacity="0.7"/>
  <circle cx="128" cy="188" r="5" fill="#00ff41" opacity="0.7"/>
  <circle cx="168" cy="180" r="4" fill="#a855f7" opacity="0.7"/>
  <line x1="88" y1="180" x2="128" y2="188" stroke="#00d4ff" stroke-width="1" opacity="0.4"/>
  <line x1="128" y1="188" x2="168" y2="180" stroke="#a855f7" stroke-width="1" opacity="0.4"/>
  <line x1="128" y1="156" x2="128" y2="188" stroke="#00ff41" stroke-width="1" opacity="0.3" stroke-dasharray="3 3"/>
  <text x="128" y="218" text-anchor="middle" font-family="monospace" font-size="16" font-weight="bold" fill="url(#glow)" letter-spacing="3">SHADOW</text>
  <text x="128" y="236" text-anchor="middle" font-family="monospace" font-size="10" fill="#4a4a5a" letter-spacing="5">CYPHER</text>
</svg>
